<svg width="50" height="60" xmlns="http://www.w3.org/2000/svg"><title>Layer 1</title><path fill="#fff" d="M8.03 21.212h32.023c1.473 0 2.668-1.123 2.668-2.506S41.527 16.2 40.054 16.2H8.03c-1.472 0-2.667 1.123-2.667 2.506s1.195 2.506 2.668 2.506zm28.703-1.775H4.71c-1.472 0-2.668 1.123-2.668 2.506s1.196 2.506 2.67 2.506h32.02c1.474 0 2.67-1.123 2.67-2.507s-1.196-2.506-2.67-2.506zm-7.022 9.18H-2.31c-1.474 0-2.67 1.122-2.67 2.505s1.196 2.506 2.67 2.506h32.02c1.474 0 2.67-1.123 2.67-2.506s-1.196-2.506-2.67-2.506z"/></svg>