<svg width="100" height="100" xmlns="http://www.w3.org/2000/svg" xmlns:xlink="http://www.w3.org/1999/xlink"><defs><symbol viewBox="0 0 100 100" id="a" xmlns:xlink="http://www.w3.org/1999/xlink" xmlns="http://www.w3.org/2000/svg"><path fill="none" d="M0 0h100v100H0z"/><path d="M39.52 30.035c.66-.537 1.04-1.323 1.04-2.148 0-.825-.382-1.61-1.043-2.148-1.283-1.044-2.02-2.576-2.02-4.205s.737-3.16 2.024-4.2c.564-.46 1.4-.372 1.858.196.46.57.37 1.4-.197 1.86-.66.538-1.04 1.32-1.04 2.145s.382 1.61 1.045 2.153c1.283 1.043 2.02 2.574 2.02 4.2 0 1.628-.737 3.16-2.022 4.203h-.002c-.658.538-1.04 1.324-1.04 2.15 0 .824.382 1.605 1.045 2.147.566.462.652 1.292.19 1.86-.26.32-.64.488-1.024.488-.292 0-.587-.098-.833-.297-1.283-1.043-2.02-2.574-2.02-4.2s.737-3.155 2.015-4.198c.002 0 .005-.005.007-.005zm7.626-2.148c0 1.63.737 3.16 2.024 4.204.242.196.537.294.83.294.386 0 .768-.17 1.028-.493.46-.567.37-1.397-.198-1.854-.66-.537-1.04-1.323-1.04-2.148 0-.825.38-1.61 1.044-2.148 1.283-1.043 2.02-2.575 2.02-4.204s-.736-3.156-2.02-4.2c-.664-.536-1.045-1.322-1.045-2.147s.38-1.612 1.044-2.154c.566-.457.652-1.287.19-1.855-.46-.562-1.29-.656-1.86-.19-1.282 1.044-2.02 2.57-2.02 4.2 0 1.625.738 3.156 2.02 4.2h.003l.002.004c.66.537 1.04 1.318 1.04 2.144s-.382 1.61-1.045 2.153c-1.282 1.04-2.02 2.572-2.02 4.197zm11.67 2.148c-1.283 1.043-2.02 2.574-2.02 4.204 0 1.624.736 3.155 2.02 4.198.246.2.54.297.834.297.384 0 .764-.168 1.025-.488.46-.568.375-1.398-.19-1.86-.662-.542-1.044-1.323-1.044-2.148 0-.83.383-1.612 1.044-2.154 1.283-1.04 2.02-2.57 2.02-4.2 0-1.624-.736-3.155-2.02-4.198-.66-.542-1.043-1.327-1.043-2.153s.38-1.607 1.042-2.144c.566-.46.654-1.295.193-1.86-.457-.567-1.287-.656-1.857-.194-1.285 1.04-2.022 2.57-2.022 4.2s.737 3.16 2.02 4.203c.664.536 1.046 1.322 1.046 2.147 0 .826-.38 1.61-1.04 2.148h-.007zM95 86.668c0 1.46-1.184 2.64-2.642 2.64H7.643C6.185 89.31 5 88.13 5 86.67c0-1.465 1.185-2.646 2.643-2.646h3.564c1.31-19.366 16.816-34.86 36.19-36.153-.007-.067-.04-.126-.04-.196v-1.42c0-1.46 1.183-2.64 2.643-2.64 1.46 0 2.643 1.18 2.643 2.64v1.42c0 .07-.033.13-.04.195 19.375 1.29 34.882 16.786 36.19 36.152h3.564c1.46 0 2.643 1.18 2.643 2.646zm-81.147-2.646H86.15c-1.366-18.77-17.035-33.64-36.15-33.64s-34.783 14.87-36.147 33.64zm67.087-5.557c-1.583-6.378-4.98-12.135-9.812-16.645-1.07-.994-2.74-.94-3.737.133-.996 1.065-.936 2.74.13 3.737 4.087 3.805 6.95 8.665 8.286 14.05.3 1.202 1.378 2.005 2.565 2.005.212 0 .428-.026.64-.075 1.418-.356 2.28-1.79 1.93-3.205z"/></symbol></defs><title>Layer 1</title><use fill="#fff" transform="matrix(.956 0 0 .965 1.868 1.896)" xlink:href="#a"/></svg>