<svg width="50" height="50" xmlns="http://www.w3.org/2000/svg"><title>Layer 1</title><path fill="#fff" d="M38.59 30.115h-9.797l5.144-10.883.85-1.8c.102-.28.194-.565.273-.855.25-.916.393-1.878.393-2.876C35.453 7.79 30.773 3 25 3c-5.774 0-10.454 4.79-10.454 10.7 0 1 .143 1.96.393 2.877.078.29.17.576.272.856l.85 1.798 5.143 10.885h-9.797L4 46h42l-7.41-15.885zM25 9.872c2.065 0 3.74 1.715 3.74 3.83S27.066 17.53 25 17.53c-2.066 0-3.74-1.714-3.74-3.83 0-2.113 1.674-3.828 3.74-3.828zm-5.934 24.17c1.758.245 2.79 1.5 4.055 3.06 2.01 2.477 4.512 5.56 11.185 5.56 4.08 0 6.58-.758 7.445-2.252l1.9 4.073H19.066v-10.44zm20.19 1.018c-2.6.006-5.497-.018-6.92-1.47-.488-.5-.76-1.152-.846-1.96h6.168l1.597 3.43zM25 38.142l3.077-6.51h2.675c.095 1.012.44 1.857 1.062 2.495 1.567 1.6 4.446 1.692 7.095 1.692h.513l.186-.002 1.705 3.657c-.024.133-.06.266-.118.396-.417.93-1.95 2.035-6.89 2.035-6.326 0-8.605-2.808-10.614-5.287-1.288-1.586-2.52-3.077-4.625-3.332v-1.654h2.856L25 38.142zm-12.658-6.51h5.983v1.603c-3.234.026-4.694 1.154-5.868 2.065-.773.6-1.41 1.087-2.39 1.214l2.275-4.882zM9.7 37.298c1.448-.043 2.304-.697 3.204-1.393 1.14-.886 2.44-1.884 5.42-1.91v10.488H6.35l3.35-7.185z"/></svg>