<?xml version="1.0"?>
<svg version="1.1" xmlns="http://www.w3.org/2000/svg" xmlns:xlink="http://www.w3.org/1999/xlink" width="2792" height="2792">
    <desc iVinci="yes" version="4.5" gridStep="20" showGrid="no" snapToGrid="no" codePlatform="0"/>
    <g id="Layer1" opacity="1">
        <g id="Shape1">
            <desc shapeID="1" type="0" basicInfo-basicType="0" basicInfo-roundedRectRadius="12" basicInfo-polygonSides="6" basicInfo-starPoints="5" bounding="rect(-768,-831.998,1536,1664)" text="" font-familyName="" font-pixelSize="20" font-bold="0" font-underline="0" font-alignment="1" strokeStyle="0" markerStart="0" markerEnd="0" shadowEnabled="0" shadowOffsetX="0" shadowOffsetY="2" shadowBlur="4" shadowOpacity="160" blurEnabled="0" blurRadius="4" transform="matrix(0.115407,0,0,0.122257,2283.82,1196.75)" pers-center="0,0" pers-size="0,0" pers-start="0,0" pers-end="0,0" locked="0" mesh="" flag=""/>
            <path id="shapePath1" d="M2224.74,1134.16 C2224.74,1132.04 2224,1130.21 2222.54,1128.66 C2221.08,1127.11 2219.35,1126.33 2217.35,1126.33 C2215.35,1126.33 2213.62,1127.11 2212.16,1128.66 C2210.69,1130.21 2209.96,1132.04 2209.96,1134.16 C2209.96,1136.28 2210.69,1138.11 2212.16,1139.66 C2213.62,1141.21 2215.35,1141.98 2217.35,1141.98 C2219.35,1141.98 2221.08,1141.21 2222.54,1139.66 C2224,1138.11 2224.74,1136.28 2224.74,1134.16 M2357.68,1204.58 C2357.68,1201.73 2356.86,1198.43 2355.2,1194.68 C2353.55,1190.93 2351.49,1189.01 2349.03,1188.93 C2350.18,1187.54 2351.14,1185.61 2351.91,1183.12 C2352.68,1180.64 2353.07,1178.38 2353.07,1176.34 C2353.07,1170.71 2351.03,1165.86 2346.95,1161.79 C2348.34,1159.18 2349.03,1156.37 2349.03,1153.35 C2349.03,1150.34 2348.36,1147.34 2347.01,1144.37 C2345.66,1141.39 2343.84,1139.25 2341.53,1137.95 C2341.91,1135.5 2342.1,1133.22 2342.1,1131.1 C2342.1,1124.17 2340.22,1119.04 2336.45,1115.7 C2332.68,1112.36 2327.45,1110.69 2320.75,1110.69 L2305.98,1110.69 C2295.9,1110.69 2282.75,1113.66 2266.51,1119.61 C2266.13,1119.77 2265.01,1120.2 2263.17,1120.89 C2261.32,1121.59 2259.95,1122.1 2259.07,1122.42 C2258.18,1122.75 2256.84,1123.22 2255.03,1123.83 C2253.22,1124.44 2251.76,1124.89 2250.64,1125.17 C2249.53,1125.46 2248.26,1125.72 2246.84,1125.97 C2245.41,1126.21 2244.2,1126.33 2243.2,1126.33 L2239.51,1126.33 L2239.51,1204.58 L2243.2,1204.58 C2244.43,1204.58 2245.8,1204.95 2247.3,1205.68 C2248.8,1206.41 2250.34,1207.51 2251.91,1208.98 C2253.49,1210.45 2254.97,1211.89 2256.36,1213.32 C2257.74,1214.75 2259.28,1216.54 2260.97,1218.7 C2262.67,1220.86 2263.99,1222.59 2264.95,1223.9 C2265.92,1225.2 2267.13,1226.87 2268.59,1228.91 C2270.05,1230.95 2270.94,1232.17 2271.24,1232.58 C2275.48,1238.12 2278.44,1241.83 2280.13,1243.7 C2283.29,1247.21 2285.57,1251.67 2287,1257.09 C2288.42,1262.51 2289.59,1267.62 2290.52,1272.43 C2291.44,1277.24 2292.9,1280.71 2294.9,1282.82 C2302.29,1282.82 2307.21,1280.91 2309.68,1277.08 C2312.14,1273.25 2313.37,1267.34 2313.37,1259.35 C2313.37,1254.54 2311.52,1248 2307.83,1239.73 C2304.14,1231.46 2302.29,1224.96 2302.29,1220.23 L2342.91,1220.23 C2346.76,1220.23 2350.18,1218.66 2353.18,1215.52 C2356.18,1212.38 2357.68,1208.74 2357.68,1204.58 M2372.46,1204.7 C2372.46,1213.1 2369.53,1220.39 2363.69,1226.59 C2357.84,1232.78 2350.91,1235.88 2342.91,1235.88 L2322.6,1235.88 C2326.29,1243.95 2328.14,1251.77 2328.14,1259.35 C2328.14,1268.97 2326.79,1276.55 2324.1,1282.09 C2321.41,1287.71 2317.48,1291.85 2312.33,1294.5 C2307.17,1297.15 2301.37,1298.47 2294.9,1298.47 C2290.98,1298.47 2287.52,1296.97 2284.52,1293.95 C2281.9,1291.26 2279.82,1287.92 2278.28,1283.92 C2276.75,1279.93 2275.76,1276.24 2275.34,1272.86 C2274.92,1269.48 2274.25,1266.03 2273.32,1262.53 C2272.4,1259.02 2271.21,1256.42 2269.74,1254.71 C2266.05,1250.63 2261.94,1245.45 2257.4,1239.18 C2249.62,1228.5 2244.35,1222.18 2241.58,1220.23 L2209.96,1220.23 C2205.89,1220.23 2202.4,1218.7 2199.52,1215.64 C2196.63,1212.59 2195.19,1208.9 2195.19,1204.58 L2195.19,1126.33 C2195.19,1122.02 2196.63,1118.33 2199.52,1115.27 C2202.4,1112.21 2205.89,1110.69 2209.96,1110.69 L2243.2,1110.69 C2244.89,1110.69 2250.2,1109.06 2259.13,1105.8 C2268.97,1102.21 2277.55,1099.52 2284.86,1097.73 C2292.17,1095.93 2299.87,1095.04 2307.94,1095.04 L2320.87,1095.04 C2331.64,1095.04 2340.35,1098.26 2347.01,1104.7 C2353.66,1111.13 2356.95,1119.94 2356.88,1131.1 L2356.88,1131.71 C2361.49,1137.99 2363.8,1145.24 2363.8,1153.48 C2363.8,1155.27 2363.69,1157.02 2363.46,1158.73 C2366.38,1164.19 2367.84,1170.06 2367.84,1176.34 C2367.84,1179.27 2367.49,1182.08 2366.8,1184.77 C2370.57,1190.81 2372.46,1197.45 2372.46,1204.7 Z" style="stroke:none;fill-rule:evenodd;fill:#ffffff;fill-opacity:1;"/>
        </g>
        <g id="Shape2">
            <desc shapeID="2" type="0" basicInfo-basicType="0" basicInfo-roundedRectRadius="12" basicInfo-polygonSides="6" basicInfo-starPoints="5" bounding="rect(0,0,0,0)" text="" font-familyName="Helvetica" font-pixelSize="20" font-bold="0" font-underline="0" font-alignment="1" strokeStyle="0" markerStart="0" markerEnd="0" shadowEnabled="0" shadowOffsetX="0" shadowOffsetY="2" shadowBlur="4" shadowOpacity="160" blurEnabled="0" blurRadius="4" transform="matrix(0.828914,0,0,0.796916,2432.94,312.991)" pers-center="0,0" pers-size="0,0" pers-start="0,0" pers-end="0,0" locked="0" mesh="" flag=""/>
            <path id="shapePath2" d="M2432.94,312.991 Z" style="stroke:none;fill-rule:evenodd;fill:#ffffff;fill-opacity:1;"/>
        </g>
        <g id="Shape3">
            <desc shapeID="3" type="0" basicInfo-basicType="0" basicInfo-roundedRectRadius="12" basicInfo-polygonSides="6" basicInfo-starPoints="5" bounding="rect(-62.5708,-67.7887,125.142,135.578)" text="" font-familyName="" font-pixelSize="20" font-bold="0" font-underline="0" font-alignment="1" strokeStyle="0" markerStart="0" markerEnd="0" shadowEnabled="0" shadowOffsetX="0" shadowOffsetY="2" shadowBlur="4" shadowOpacity="160" blurEnabled="0" blurRadius="4" transform="matrix(1.41652,0,0,1.50051,2391.78,496.696)" pers-center="0,0" pers-size="0,0" pers-start="0,0" pers-end="0,0" locked="0" mesh="" flag=""/>
            <path id="shapePath3" d="M2474.76,508.677 C2478.54,502.645 2480.42,496.004 2480.42,488.75 C2480.42,480.355 2477.5,473.062 2471.65,466.862 C2465.8,460.668 2458.88,457.572 2450.88,457.572 L2430.56,457.572 C2434.25,449.504 2436.1,441.679 2436.1,434.1 C2436.1,424.564 2434.75,416.985 2432.06,411.361 C2429.37,405.736 2425.44,401.6 2420.29,398.95 C2415.13,396.302 2409.33,394.978 2402.86,394.978 C2398.94,394.978 2395.48,396.486 2392.48,399.502 C2389.17,402.925 2386.78,407.328 2385.32,412.707 C2383.86,418.085 2382.69,423.241 2381.8,428.171 C2380.92,433.102 2379.55,436.586 2377.71,438.624 C2373.93,442.944 2369.82,448.161 2365.36,454.273 C2357.58,464.949 2352.31,471.266 2349.54,473.223 L2317.92,473.223 C2313.85,473.223 2310.36,474.753 2307.48,477.807 C2304.59,480.863 2303.15,484.552 2303.15,488.872 L2303.15,567.111 C2303.15,571.434 2304.59,575.121 2307.48,578.176 C2310.37,581.231 2313.85,582.761 2317.92,582.761 L2351.16,582.761 C2352.85,582.761 2358.16,584.394 2367.08,587.652 C2376.55,591.156 2384.88,593.826 2392.07,595.661 C2399.27,597.497 2406.55,598.415 2413.94,598.415 L2424.67,598.415 L2428.83,598.415 C2439.68,598.415 2448.41,595.129 2455.03,588.57 C2461.64,582.006 2464.91,573.063 2464.84,561.732 C2469.45,555.454 2471.76,548.204 2471.76,539.974 C2471.76,538.181 2471.65,536.429 2471.42,534.715 C2474.34,529.257 2475.8,523.388 2475.8,517.113 C2475.8,514.178 2475.46,511.366 2474.76,508.677 M2330.5,564.791 C2329.04,566.336 2327.31,567.115 2325.31,567.115 C2323.31,567.115 2321.58,566.336 2320.12,564.791 C2318.65,563.246 2317.92,561.41 2317.92,559.288 C2317.92,557.171 2318.65,555.335 2320.12,553.79 C2321.58,552.24 2323.31,551.466 2325.31,551.466 C2327.31,551.466 2329.04,552.24 2330.5,553.79 C2331.97,555.335 2332.7,557.171 2332.7,559.288 C2332.7,561.41 2331.97,563.246 2330.5,564.791 M2463.17,498.78 C2461.51,502.529 2459.45,504.444 2456.99,504.525 C2458.15,505.911 2459.11,507.848 2459.88,510.331 C2460.65,512.819 2461.03,515.079 2461.03,517.117 C2461.03,522.738 2458.99,527.589 2454.92,531.662 C2456.3,534.27 2456.99,537.082 2456.99,540.098 C2456.99,543.113 2456.32,546.108 2454.97,549.082 C2453.63,552.058 2451.8,554.195 2449.49,555.498 C2449.88,557.946 2450.07,560.226 2450.07,562.344 C2450.07,575.951 2442.68,582.757 2427.91,582.757 L2413.95,582.757 C2403.87,582.757 2390.71,579.785 2374.48,573.838 C2374.09,573.671 2372.97,573.246 2371.13,572.554 C2369.28,571.859 2367.91,571.35 2367.03,571.025 C2366.15,570.695 2364.8,570.23 2362.99,569.618 C2361.18,569.006 2359.72,568.557 2358.6,568.271 C2357.49,567.989 2356.22,567.723 2354.8,567.477 C2353.38,567.234 2352.16,567.111 2351.16,567.111 L2347.47,567.111 L2347.47,488.875 L2351.16,488.875 C2352.39,488.875 2353.76,488.507 2355.26,487.775 C2356.76,487.041 2358.3,485.941 2359.88,484.474 C2361.45,483.006 2362.93,481.56 2364.32,480.133 C2365.7,478.707 2367.24,476.914 2368.94,474.755 C2370.63,472.594 2371.96,470.862 2372.92,469.558 C2373.88,468.254 2375.09,466.583 2376.55,464.545 C2378.01,462.509 2378.9,461.286 2379.21,460.878 C2383.44,455.337 2386.4,451.629 2388.09,449.753 C2391.25,446.25 2393.54,441.787 2394.96,436.367 C2396.38,430.946 2397.56,425.832 2398.48,421.024 C2399.4,416.215 2400.86,412.75 2402.86,410.632 C2410.25,410.632 2415.18,412.547 2417.64,416.377 C2420.1,420.208 2421.33,426.117 2421.33,434.104 C2421.33,438.912 2419.48,445.453 2415.79,453.725 C2412.1,461.997 2410.25,468.498 2410.25,473.224 L2450.88,473.224 C2454.73,473.224 2458.15,474.792 2461.14,477.931 C2464.14,481.069 2465.65,484.715 2465.65,488.873 C2465.65,491.725 2464.82,495.027 2463.17,498.78 Z" style="stroke:none;fill-rule:evenodd;fill:#ffffff;fill-opacity:1;"/>
        </g>
        <g id="Shape4">
            <desc shapeID="4" type="2" basicInfo-basicType="0" basicInfo-roundedRectRadius="12" basicInfo-polygonSides="6" basicInfo-starPoints="5" bounding="rect(-728.057,-236.915,1456.11,473.829)" text="Swipe right if you like it" font-familyName="Lato" font-pixelSize="140" font-bold="0" font-underline="0" font-alignment="0" strokeStyle="0" markerStart="0" markerEnd="0" shadowEnabled="0" shadowOffsetX="0" shadowOffsetY="2" shadowBlur="4" shadowOpacity="160" blurEnabled="0" blurRadius="4" transform="matrix(1,0,0,1,1555.77,518.599)" pers-center="0,0" pers-size="0,0" pers-start="0,0" pers-end="0,0" locked="0" mesh="" flag=""/>
            <path id="shapePath4" d="M891.279,488.234 C890.859,488.934 890.416,489.459 889.949,489.809 C889.483,490.159 888.876,490.334 888.129,490.334 C887.336,490.334 886.414,489.938 885.365,489.144 C884.314,488.351 882.984,487.476 881.375,486.519 C879.764,485.563 877.828,484.688 875.564,483.894 C873.301,483.101 870.56,482.704 867.339,482.704 C864.306,482.704 861.623,483.113 859.289,483.929 C856.956,484.746 855.008,485.854 853.444,487.254 C851.881,488.654 850.703,490.299 849.909,492.189 C849.116,494.079 848.719,496.121 848.719,498.314 C848.719,501.114 849.408,503.436 850.784,505.279 C852.161,507.123 853.981,508.698 856.245,510.004 C858.508,511.311 861.074,512.443 863.944,513.399 C866.814,514.356 869.754,515.348 872.764,516.374 C875.774,517.401 878.714,518.556 881.584,519.839 C884.454,521.123 887.021,522.744 889.284,524.704 C891.548,526.664 893.368,529.068 894.745,531.914 C896.121,534.761 896.81,538.261 896.81,542.414 C896.81,546.801 896.063,550.919 894.569,554.769 C893.076,558.619 890.894,561.968 888.024,564.814 C885.154,567.661 881.631,569.901 877.454,571.534 C873.278,573.168 868.529,573.984 863.209,573.984 C856.723,573.984 850.808,572.806 845.464,570.449 C840.121,568.093 835.56,564.908 831.779,560.894 L835.699,554.454 C836.073,553.941 836.528,553.509 837.064,553.159 C837.601,552.809 838.196,552.634 838.849,552.634 C839.829,552.634 840.949,553.159 842.209,554.209 C843.469,555.259 845.044,556.414 846.935,557.674 C848.824,558.934 851.111,560.089 853.794,561.139 C856.478,562.189 859.756,562.714 863.629,562.714 C866.849,562.714 869.719,562.271 872.24,561.384 C874.759,560.498 876.894,559.249 878.644,557.639 C880.394,556.029 881.736,554.104 882.669,551.864 C883.603,549.624 884.069,547.128 884.069,544.374 C884.069,541.341 883.381,538.856 882.004,536.919 C880.628,534.983 878.819,533.361 876.579,532.054 C874.339,530.748 871.784,529.639 868.914,528.729 C866.044,527.819 863.104,526.886 860.094,525.929 C857.084,524.973 854.144,523.864 851.274,522.604 C848.404,521.344 845.849,519.711 843.609,517.704 C841.37,515.698 839.561,513.189 838.185,510.179 C836.808,507.169 836.12,503.448 836.12,499.014 C836.12,495.468 836.808,492.038 838.185,488.724 C839.561,485.411 841.556,482.471 844.169,479.904 C846.783,477.338 850.014,475.284 853.865,473.744 C857.714,472.204 862.136,471.434 867.129,471.434 C872.729,471.434 877.839,472.321 882.459,474.094 C887.079,475.868 891.116,478.434 894.569,481.794 L891.279,488.234 M902.887,501.954 L912.687,501.954 C913.714,501.954 914.554,502.211 915.207,502.724 C915.86,503.238 916.304,503.844 916.537,504.544 L930.117,550.184 C930.49,551.864 930.84,553.486 931.167,555.049 C931.494,556.613 931.774,558.188 932.007,559.774 C932.38,558.188 932.8,556.613 933.267,555.049 C933.734,553.486 934.224,551.864 934.737,550.184 L949.717,504.264 C949.95,503.564 950.359,502.981 950.942,502.514 C951.525,502.048 952.26,501.814 953.147,501.814 L958.537,501.814 C959.47,501.814 960.24,502.048 960.847,502.514 C961.454,502.981 961.874,503.564 962.107,504.264 L976.737,550.184 C977.25,551.818 977.705,553.428 978.102,555.014 C978.499,556.601 978.884,558.164 979.257,559.704 C979.49,558.164 979.794,556.554 980.167,554.874 C980.54,553.194 980.937,551.631 981.357,550.184 L995.217,504.544 C995.45,503.798 995.894,503.179 996.547,502.689 C997.2,502.199 997.97,501.954 998.857,501.954 L1008.24,501.954 L985.277,572.864 L975.407,572.864 C974.194,572.864 973.354,572.071 972.887,570.484 L957.207,522.394 C956.834,521.321 956.53,520.236 956.297,519.139 C956.064,518.043 955.83,516.958 955.597,515.884 C955.364,516.958 955.13,518.054 954.897,519.174 C954.664,520.294 954.36,521.391 953.987,522.464 L938.097,570.484 C937.584,572.071 936.627,572.864 935.227,572.864 L925.847,572.864 L902.887,501.954 M1033.22,501.954 L1033.22,572.864 L1020.76,572.864 L1020.76,501.954 L1033.22,501.954 M1036.02,479.694 C1036.02,480.908 1035.78,482.039 1035.29,483.089 C1034.8,484.139 1034.14,485.073 1033.33,485.889 C1032.51,486.706 1031.56,487.348 1030.49,487.814 C1029.42,488.281 1028.27,488.514 1027.06,488.514 C1025.85,488.514 1024.72,488.281 1023.67,487.814 C1022.62,487.348 1021.68,486.706 1020.87,485.889 C1020.05,485.073 1019.41,484.139 1018.94,483.089 C1018.47,482.039 1018.24,480.908 1018.24,479.694 C1018.24,478.481 1018.47,477.326 1018.94,476.229 C1019.41,475.133 1020.05,474.176 1020.87,473.359 C1021.68,472.543 1022.62,471.901 1023.67,471.434 C1024.72,470.968 1025.85,470.734 1027.06,470.734 C1028.27,470.734 1029.42,470.968 1030.49,471.434 C1031.56,471.901 1032.51,472.543 1033.33,473.359 C1034.14,474.176 1034.8,475.133 1035.29,476.229 C1035.78,477.326 1036.02,478.481 1036.02,479.694 M1055.19,596.874 L1055.19,501.954 L1062.61,501.954 C1064.38,501.954 1065.5,502.818 1065.97,504.544 L1067.02,512.944 C1070.05,509.258 1073.52,506.294 1077.41,504.054 C1081.31,501.814 1085.8,500.694 1090.89,500.694 C1094.95,500.694 1098.64,501.476 1101.95,503.039 C1105.26,504.603 1108.09,506.913 1110.42,509.969 C1112.75,513.026 1114.55,516.818 1115.81,521.344 C1117.07,525.871 1117.7,531.074 1117.7,536.954 C1117.7,542.181 1117,547.046 1115.6,551.549 C1114.2,556.053 1112.19,559.949 1109.58,563.239 C1106.97,566.529 1103.76,569.119 1099.95,571.009 C1096.15,572.899 1091.87,573.844 1087.11,573.844 C1082.72,573.844 1078.98,573.121 1075.87,571.674 C1072.77,570.228 1070.03,568.174 1067.65,565.514 L1067.65,596.874 L1055.19,596.874 M1086.76,510.774 C1082.7,510.774 1079.14,511.708 1076.08,513.574 C1073.03,515.441 1070.22,518.078 1067.65,521.484 L1067.65,555.784 C1069.94,558.864 1072.44,561.034 1075.17,562.294 C1077.9,563.554 1080.95,564.184 1084.31,564.184 C1090.89,564.184 1095.95,561.828 1099.5,557.114 C1103.05,552.401 1104.82,545.681 1104.82,536.954 C1104.82,532.334 1104.41,528.368 1103.59,525.054 C1102.78,521.741 1101.6,519.023 1100.06,516.899 C1098.52,514.776 1096.63,513.224 1094.39,512.244 C1092.15,511.264 1089.61,510.774 1086.76,510.774 M1160.53,500.834 C1164.77,500.834 1168.69,501.546 1172.29,502.969 C1175.88,504.393 1178.98,506.446 1181.6,509.129 C1184.21,511.813 1186.25,515.126 1187.72,519.069 C1189.19,523.013 1189.93,527.504 1189.93,532.544 C1189.93,534.504 1189.72,535.811 1189.3,536.464 C1188.88,537.118 1188.08,537.444 1186.92,537.444 L1139.74,537.444 C1139.83,541.924 1140.44,545.821 1141.56,549.134 C1142.68,552.448 1144.22,555.213 1146.18,557.429 C1148.14,559.646 1150.47,561.303 1153.18,562.399 C1155.88,563.496 1158.92,564.044 1162.28,564.044 C1165.4,564.044 1168.1,563.683 1170.36,562.959 C1172.62,562.236 1174.57,561.454 1176.21,560.614 C1177.84,559.774 1179.2,558.993 1180.3,558.269 C1181.4,557.546 1182.34,557.184 1183.14,557.184 C1184.16,557.184 1184.96,557.581 1185.52,558.374 L1189.02,562.924 C1187.48,564.791 1185.63,566.413 1183.49,567.789 C1181.34,569.166 1179.04,570.298 1176.59,571.184 C1174.14,572.071 1171.61,572.736 1169,573.179 C1166.38,573.623 1163.79,573.844 1161.23,573.844 C1156.33,573.844 1151.81,573.016 1147.68,571.359 C1143.55,569.703 1139.98,567.276 1136.97,564.079 C1133.96,560.883 1131.62,556.928 1129.94,552.214 C1128.26,547.501 1127.42,542.088 1127.42,535.974 C1127.42,531.028 1128.17,526.408 1129.69,522.114 C1131.21,517.821 1133.39,514.099 1136.24,510.949 C1139.08,507.799 1142.56,505.326 1146.67,503.529 C1150.77,501.733 1155.39,500.834 1160.53,500.834 M1160.81,510.004 C1154.79,510.004 1150.05,511.743 1146.6,515.219 C1143.14,518.696 1141,523.514 1140.16,529.674 L1178.73,529.674 C1178.73,526.781 1178.33,524.133 1177.54,521.729 C1176.74,519.326 1175.58,517.249 1174.04,515.499 C1172.5,513.749 1170.62,512.396 1168.4,511.439 C1166.18,510.483 1163.65,510.004 1160.81,510.004 M1232.83,572.864 L1232.83,501.954 L1239.97,501.954 C1241.32,501.954 1242.26,502.211 1242.77,502.724 C1243.28,503.238 1243.63,504.124 1243.82,505.384 L1244.66,516.444 C1247.09,511.498 1250.09,507.636 1253.66,504.859 C1257.23,502.083 1261.41,500.694 1266.22,500.694 C1268.18,500.694 1269.95,500.916 1271.54,501.359 C1273.13,501.803 1274.6,502.421 1275.95,503.214 L1274.34,512.524 C1274.01,513.691 1273.29,514.274 1272.17,514.274 C1271.52,514.274 1270.51,514.053 1269.16,513.609 C1267.81,513.166 1265.92,512.944 1263.49,512.944 C1259.15,512.944 1255.52,514.204 1252.61,516.724 C1249.69,519.244 1247.25,522.908 1245.29,527.714 L1245.29,572.864 L1232.83,572.864 M1303.1,501.954 L1303.1,572.864 L1290.64,572.864 L1290.64,501.954 L1303.1,501.954 M1305.9,479.694 C1305.9,480.908 1305.65,482.039 1305.16,483.089 C1304.67,484.139 1304.02,485.073 1303.2,485.889 C1302.38,486.706 1301.44,487.348 1300.37,487.814 C1299.29,488.281 1298.15,488.514 1296.94,488.514 C1295.72,488.514 1294.59,488.281 1293.54,487.814 C1292.49,487.348 1291.56,486.706 1290.74,485.889 C1289.92,485.073 1289.28,484.139 1288.82,483.089 C1288.35,482.039 1288.12,480.908 1288.12,479.694 C1288.12,478.481 1288.35,477.326 1288.82,476.229 C1289.28,475.133 1289.92,474.176 1290.74,473.359 C1291.56,472.543 1292.49,471.901 1293.54,471.434 C1294.59,470.968 1295.72,470.734 1296.94,470.734 C1298.15,470.734 1299.29,470.968 1300.37,471.434 C1301.44,471.901 1302.38,472.543 1303.2,473.359 C1304.02,474.176 1304.67,475.133 1305.16,476.229 C1305.65,477.326 1305.9,478.481 1305.9,479.694 M1348.93,500.764 C1352.01,500.764 1354.9,501.103 1357.58,501.779 C1360.26,502.456 1362.7,503.448 1364.89,504.754 L1384.14,504.754 L1384.14,509.374 C1384.14,510.914 1383.16,511.894 1381.2,512.314 L1373.15,513.434 C1374.74,516.468 1375.53,519.851 1375.53,523.584 C1375.53,527.038 1374.87,530.176 1373.54,532.999 C1372.21,535.823 1370.37,538.238 1368.01,540.244 C1365.65,542.251 1362.85,543.791 1359.61,544.864 C1356.37,545.938 1352.81,546.474 1348.93,546.474 C1345.62,546.474 1342.49,546.078 1339.55,545.284 C1338.06,546.218 1336.93,547.221 1336.16,548.294 C1335.39,549.368 1335,550.418 1335,551.444 C1335,553.124 1335.68,554.396 1337.03,555.259 C1338.39,556.123 1340.18,556.741 1342.42,557.114 C1344.66,557.488 1347.21,557.721 1350.05,557.814 C1352.9,557.908 1355.81,558.059 1358.77,558.269 C1361.73,558.479 1364.64,558.841 1367.48,559.354 C1370.33,559.868 1372.87,560.708 1375.11,561.874 C1377.35,563.041 1379.15,564.651 1380.5,566.704 C1381.86,568.758 1382.53,571.418 1382.53,574.684 C1382.53,577.718 1381.78,580.658 1380.26,583.504 C1378.74,586.351 1376.56,588.883 1373.71,591.099 C1370.87,593.316 1367.39,595.089 1363.28,596.419 C1359.18,597.749 1354.53,598.414 1349.35,598.414 C1344.17,598.414 1339.64,597.901 1335.74,596.874 C1331.84,595.848 1328.61,594.471 1326.04,592.744 C1323.48,591.018 1321.55,589.023 1320.27,586.759 C1318.99,584.496 1318.34,582.128 1318.34,579.654 C1318.34,576.154 1319.45,573.179 1321.67,570.729 C1323.89,568.279 1326.93,566.331 1330.8,564.884 C1328.8,563.951 1327.2,562.703 1326.01,561.139 C1324.82,559.576 1324.22,557.488 1324.22,554.874 C1324.22,553.848 1324.41,552.786 1324.78,551.689 C1325.16,550.593 1325.73,549.508 1326.5,548.434 C1327.27,547.361 1328.21,546.334 1329.33,545.354 C1330.45,544.374 1331.76,543.511 1333.25,542.764 C1329.75,540.804 1327.01,538.203 1325.03,534.959 C1323.05,531.716 1322.05,527.924 1322.05,523.584 C1322.05,520.131 1322.72,516.993 1324.05,514.169 C1325.38,511.346 1327.23,508.943 1329.61,506.959 C1331.99,504.976 1334.83,503.448 1338.12,502.374 C1341.41,501.301 1345.01,500.764 1348.93,500.764 M1371.05,576.714 C1371.05,574.941 1370.56,573.518 1369.58,572.444 C1368.6,571.371 1367.27,570.543 1365.59,569.959 C1363.91,569.376 1361.98,568.944 1359.78,568.664 C1357.59,568.384 1355.28,568.186 1352.85,568.069 C1350.43,567.953 1347.95,567.824 1345.43,567.684 C1342.91,567.544 1340.51,567.288 1338.22,566.914 C1335.56,568.174 1333.41,569.714 1331.75,571.534 C1330.09,573.354 1329.26,575.524 1329.26,578.044 C1329.26,579.631 1329.67,581.113 1330.49,582.489 C1331.31,583.866 1332.55,585.056 1334.23,586.059 C1335.91,587.063 1338.03,587.856 1340.57,588.439 C1343.11,589.023 1346.11,589.314 1349.56,589.314 C1352.92,589.314 1355.93,589.011 1358.59,588.404 C1361.25,587.798 1363.51,586.934 1365.35,585.814 C1367.19,584.694 1368.6,583.364 1369.58,581.824 C1370.56,580.284 1371.05,578.581 1371.05,576.714 M1348.93,538.214 C1351.45,538.214 1353.68,537.864 1355.62,537.164 C1357.56,536.464 1359.18,535.484 1360.48,534.224 C1361.79,532.964 1362.77,531.459 1363.42,529.709 C1364.08,527.959 1364.4,526.034 1364.4,523.934 C1364.4,519.594 1363.09,516.141 1360.45,513.574 C1357.81,511.008 1353.97,509.724 1348.93,509.724 C1343.94,509.724 1340.13,511.008 1337.49,513.574 C1334.85,516.141 1333.53,519.594 1333.53,523.934 C1333.53,526.034 1333.87,527.959 1334.55,529.709 C1335.23,531.459 1336.22,532.964 1337.52,534.224 C1338.83,535.484 1340.44,536.464 1342.35,537.164 C1344.27,537.864 1346.46,538.214 1348.93,538.214 M1396.6,572.864 L1396.6,469.754 L1409.06,469.754 L1409.06,511.474 C1412.09,508.254 1415.45,505.676 1419.14,503.739 C1422.82,501.803 1427.07,500.834 1431.88,500.834 C1435.75,500.834 1439.17,501.476 1442.13,502.759 C1445.09,504.043 1447.57,505.863 1449.55,508.219 C1451.53,510.576 1453.04,513.411 1454.07,516.724 C1455.09,520.038 1455.61,523.701 1455.61,527.714 L1455.61,572.864 L1443.15,572.864 L1443.15,527.714 C1443.15,522.348 1441.92,518.183 1439.47,515.219 C1437.02,512.256 1433.28,510.774 1428.24,510.774 C1424.55,510.774 1421.11,511.661 1417.91,513.434 C1414.71,515.208 1411.76,517.611 1409.06,520.644 L1409.06,572.864 L1396.6,572.864 M1495.91,573.984 C1490.31,573.984 1486.01,572.421 1483,569.294 C1479.99,566.168 1478.48,561.664 1478.48,555.784 L1478.48,512.384 L1469.94,512.384 C1469.2,512.384 1468.57,512.163 1468.05,511.719 C1467.54,511.276 1467.28,510.588 1467.28,509.654 L1467.28,504.684 L1478.9,503.214 L1481.77,481.304 C1481.87,480.604 1482.17,480.033 1482.68,479.589 C1483.2,479.146 1483.85,478.924 1484.64,478.924 L1490.94,478.924 L1490.94,503.354 L1511.24,503.354 L1511.24,512.384 L1490.94,512.384 L1490.94,554.944 C1490.94,557.931 1491.67,560.148 1493.11,561.594 C1494.56,563.041 1496.43,563.764 1498.71,563.764 C1500.02,563.764 1501.15,563.589 1502.11,563.239 C1503.07,562.889 1503.89,562.504 1504.59,562.084 C1505.29,561.664 1505.89,561.279 1506.38,560.929 C1506.87,560.579 1507.3,560.404 1507.67,560.404 C1508.33,560.404 1508.91,560.801 1509.42,561.594 L1513.06,567.544 C1510.92,569.551 1508.33,571.126 1505.29,572.269 C1502.26,573.413 1499.13,573.984 1495.91,573.984 M1567.52,501.954 L1567.52,572.864 L1555.06,572.864 L1555.06,501.954 L1567.52,501.954 M1570.32,479.694 C1570.32,480.908 1570.07,482.039 1569.58,483.089 C1569.09,484.139 1568.44,485.073 1567.62,485.889 C1566.81,486.706 1565.86,487.348 1564.79,487.814 C1563.71,488.281 1562.57,488.514 1561.36,488.514 C1560.14,488.514 1559.01,488.281 1557.96,487.814 C1556.91,487.348 1555.98,486.706 1555.16,485.889 C1554.35,485.073 1553.7,484.139 1553.24,483.089 C1552.77,482.039 1552.54,480.908 1552.54,479.694 C1552.54,478.481 1552.77,477.326 1553.24,476.229 C1553.7,475.133 1554.35,474.176 1555.16,473.359 C1555.98,472.543 1556.91,471.901 1557.96,471.434 C1559.01,470.968 1560.14,470.734 1561.36,470.734 C1562.57,470.734 1563.71,470.968 1564.79,471.434 C1565.86,471.901 1566.81,472.543 1567.62,473.359 C1568.44,474.176 1569.09,475.133 1569.58,476.229 C1570.07,477.326 1570.32,478.481 1570.32,479.694 M1592.29,572.864 L1592.29,512.594 L1584.45,511.684 C1583.47,511.451 1582.66,511.089 1582.03,510.599 C1581.4,510.109 1581.09,509.398 1581.09,508.464 L1581.09,503.354 L1592.29,503.354 L1592.29,496.494 C1592.29,492.434 1592.86,488.829 1594,485.679 C1595.14,482.529 1596.78,479.869 1598.9,477.699 C1601.02,475.529 1603.58,473.884 1606.57,472.764 C1609.55,471.644 1612.91,471.084 1616.65,471.084 C1619.82,471.084 1622.76,471.551 1625.47,472.484 L1625.19,478.714 C1625.14,479.648 1624.74,480.208 1624,480.394 C1623.25,480.581 1622.2,480.674 1620.85,480.674 L1618.68,480.674 C1616.53,480.674 1614.58,480.954 1612.83,481.514 C1611.08,482.074 1609.58,482.984 1608.32,484.244 C1607.06,485.504 1606.09,487.161 1605.41,489.214 C1604.73,491.268 1604.4,493.811 1604.4,496.844 L1604.4,503.354 L1624.91,503.354 L1624.91,512.384 L1604.82,512.384 L1604.82,572.864 L1592.29,572.864 M1684.46,593.794 C1684.04,594.728 1683.52,595.474 1682.89,596.034 C1682.26,596.594 1681.29,596.874 1679.98,596.874 L1670.74,596.874 L1683.69,568.734 L1654.43,501.954 L1665.21,501.954 C1666.29,501.954 1667.13,502.223 1667.73,502.759 C1668.34,503.296 1668.78,503.891 1669.06,504.544 L1688.03,549.204 C1688.45,550.231 1688.82,551.258 1689.12,552.284 C1689.42,553.311 1689.69,554.361 1689.92,555.434 C1690.25,554.361 1690.58,553.311 1690.9,552.284 C1691.23,551.258 1691.6,550.208 1692.02,549.134 L1710.43,504.544 C1710.71,503.798 1711.19,503.179 1711.87,502.689 C1712.55,502.199 1713.28,501.954 1714.07,501.954 L1724.01,501.954 L1684.46,593.794 M1762.23,500.834 C1767.41,500.834 1772.09,501.698 1776.27,503.424 C1780.44,505.151 1783.99,507.601 1786.91,510.774 C1789.82,513.948 1792.06,517.786 1793.63,522.289 C1795.19,526.793 1795.97,531.821 1795.97,537.374 C1795.97,542.974 1795.19,548.014 1793.63,552.494 C1792.06,556.974 1789.82,560.801 1786.91,563.974 C1783.99,567.148 1780.44,569.586 1776.27,571.289 C1772.09,572.993 1767.41,573.844 1762.23,573.844 C1757.05,573.844 1752.37,572.993 1748.2,571.289 C1744.02,569.586 1740.46,567.148 1737.52,563.974 C1734.58,560.801 1732.32,556.974 1730.73,552.494 C1729.15,548.014 1728.35,542.974 1728.35,537.374 C1728.35,531.821 1729.15,526.793 1730.73,522.289 C1732.32,517.786 1734.58,513.948 1737.52,510.774 C1740.46,507.601 1744.02,505.151 1748.2,503.424 C1752.37,501.698 1757.05,500.834 1762.23,500.834 M1762.23,564.114 C1769.23,564.114 1774.46,561.769 1777.91,557.079 C1781.37,552.389 1783.09,545.844 1783.09,537.444 C1783.09,528.998 1781.37,522.418 1777.91,517.704 C1774.46,512.991 1769.23,510.634 1762.23,510.634 C1758.69,510.634 1755.61,511.241 1752.99,512.454 C1750.38,513.668 1748.2,515.418 1746.45,517.704 C1744.7,519.991 1743.39,522.803 1742.53,526.139 C1741.66,529.476 1741.23,533.244 1741.23,537.444 C1741.23,541.644 1741.66,545.401 1742.53,548.714 C1743.39,552.028 1744.7,554.816 1746.45,557.079 C1748.2,559.343 1750.38,561.081 1752.99,562.294 C1755.61,563.508 1758.69,564.114 1762.23,564.114 M1822.14,501.954 L1822.14,547.174 C1822.14,552.541 1823.38,556.694 1825.85,559.634 C1828.32,562.574 1832.06,564.044 1837.05,564.044 C1840.69,564.044 1844.12,563.181 1847.34,561.454 C1850.56,559.728 1853.52,557.324 1856.23,554.244 L1856.23,501.954 L1868.69,501.954 L1868.69,572.864 L1861.27,572.864 C1859.5,572.864 1858.38,572.001 1857.91,570.274 L1856.93,562.644 C1853.85,566.051 1850.4,568.793 1846.57,570.869 C1842.74,572.946 1838.36,573.984 1833.41,573.984 C1829.54,573.984 1826.12,573.343 1823.16,572.059 C1820.19,570.776 1817.71,568.968 1815.7,566.634 C1813.69,564.301 1812.19,561.478 1811.19,558.164 C1810.18,554.851 1809.68,551.188 1809.68,547.174 L1809.68,501.954 L1822.14,501.954 M1930.07,469.754 L1930.07,572.864 L1917.61,572.864 L1917.61,469.754 L1930.07,469.754 M1965.89,501.954 L1965.89,572.864 L1953.43,572.864 L1953.43,501.954 L1965.89,501.954 M1968.69,479.694 C1968.69,480.908 1968.45,482.039 1967.96,483.089 C1967.47,484.139 1966.81,485.073 1966,485.889 C1965.18,486.706 1964.24,487.348 1963.16,487.814 C1962.09,488.281 1960.95,488.514 1959.73,488.514 C1958.52,488.514 1957.39,488.281 1956.34,487.814 C1955.29,487.348 1954.35,486.706 1953.54,485.889 C1952.72,485.073 1952.08,484.139 1951.61,483.089 C1951.15,482.039 1950.91,480.908 1950.91,479.694 C1950.91,478.481 1951.15,477.326 1951.61,476.229 C1952.08,475.133 1952.72,474.176 1953.54,473.359 C1954.35,472.543 1955.29,471.901 1956.34,471.434 C1957.39,470.968 1958.52,470.734 1959.73,470.734 C1960.95,470.734 1962.09,470.968 1963.16,471.434 C1964.24,471.901 1965.18,472.543 1966,473.359 C1966.81,474.176 1967.47,475.133 1967.96,476.229 C1968.45,477.326 1968.69,478.481 1968.69,479.694 M2000.81,469.754 L2000.81,530.444 L2004.03,530.444 C2004.96,530.444 2005.73,530.316 2006.34,530.059 C2006.95,529.803 2007.62,529.278 2008.37,528.484 L2030.77,504.474 C2031.47,503.728 2032.17,503.121 2032.87,502.654 C2033.57,502.188 2034.5,501.954 2035.67,501.954 L2047.01,501.954 L2020.9,529.744 C2020.25,530.538 2019.61,531.238 2018.98,531.844 C2018.35,532.451 2017.63,532.988 2016.84,533.454 C2017.68,534.014 2018.44,534.656 2019.12,535.379 C2019.79,536.103 2020.43,536.931 2021.04,537.864 L2048.76,572.864 L2037.56,572.864 C2036.53,572.864 2035.66,572.666 2034.94,572.269 C2034.21,571.873 2033.52,571.254 2032.87,570.414 L2009.56,541.364 C2008.86,540.384 2008.16,539.743 2007.46,539.439 C2006.76,539.136 2005.71,538.984 2004.31,538.984 L2000.81,538.984 L2000.81,572.864 L1988.28,572.864 L1988.28,469.754 L2000.81,469.754 M2085.09,500.834 C2089.33,500.834 2093.25,501.546 2096.85,502.969 C2100.44,504.393 2103.54,506.446 2106.16,509.129 C2108.77,511.813 2110.81,515.126 2112.28,519.069 C2113.75,523.013 2114.49,527.504 2114.49,532.544 C2114.49,534.504 2114.28,535.811 2113.86,536.464 C2113.44,537.118 2112.64,537.444 2111.48,537.444 L2064.3,537.444 C2064.39,541.924 2065,545.821 2066.12,549.134 C2067.24,552.448 2068.78,555.213 2070.74,557.429 C2072.7,559.646 2075.03,561.303 2077.74,562.399 C2080.44,563.496 2083.48,564.044 2086.84,564.044 C2089.96,564.044 2092.66,563.683 2094.92,562.959 C2097.19,562.236 2099.13,561.454 2100.77,560.614 C2102.4,559.774 2103.77,558.993 2104.86,558.269 C2105.96,557.546 2106.9,557.184 2107.7,557.184 C2108.72,557.184 2109.52,557.581 2110.08,558.374 L2113.58,562.924 C2112.04,564.791 2110.19,566.413 2108.05,567.789 C2105.9,569.166 2103.6,570.298 2101.15,571.184 C2098.7,572.071 2096.17,572.736 2093.56,573.179 C2090.94,573.623 2088.35,573.844 2085.79,573.844 C2080.89,573.844 2076.37,573.016 2072.24,571.359 C2068.11,569.703 2064.54,567.276 2061.53,564.079 C2058.52,560.883 2056.18,556.928 2054.5,552.214 C2052.82,547.501 2051.98,542.088 2051.98,535.974 C2051.98,531.028 2052.74,526.408 2054.25,522.114 C2055.77,517.821 2057.95,514.099 2060.8,510.949 C2063.64,507.799 2067.12,505.326 2071.23,503.529 C2075.33,501.733 2079.95,500.834 2085.09,500.834 M2085.37,510.004 C2079.35,510.004 2074.61,511.743 2071.16,515.219 C2067.7,518.696 2065.56,523.514 2064.72,529.674 L2103.29,529.674 C2103.29,526.781 2102.89,524.133 2102.1,521.729 C2101.3,519.326 2100.14,517.249 2098.6,515.499 C2097.06,513.749 2095.18,512.396 2092.96,511.439 C2090.75,510.483 2088.21,510.004 2085.37,510.004 M2171.25,501.954 L2171.25,572.864 L2158.79,572.864 L2158.79,501.954 L2171.25,501.954 M2174.05,479.694 C2174.05,480.908 2173.81,482.039 2173.32,483.089 C2172.83,484.139 2172.17,485.073 2171.36,485.889 C2170.54,486.706 2169.6,487.348 2168.52,487.814 C2167.45,488.281 2166.31,488.514 2165.09,488.514 C2163.88,488.514 2162.75,488.281 2161.7,487.814 C2160.65,487.348 2159.71,486.706 2158.9,485.889 C2158.08,485.073 2157.44,484.139 2156.97,483.089 C2156.51,482.039 2156.27,480.908 2156.27,479.694 C2156.27,478.481 2156.51,477.326 2156.97,476.229 C2157.44,475.133 2158.08,474.176 2158.9,473.359 C2159.71,472.543 2160.65,471.901 2161.7,471.434 C2162.75,470.968 2163.88,470.734 2165.09,470.734 C2166.31,470.734 2167.45,470.968 2168.52,471.434 C2169.6,471.901 2170.54,472.543 2171.36,473.359 C2172.17,474.176 2172.83,475.133 2173.32,476.229 C2173.81,477.326 2174.05,478.481 2174.05,479.694 M2214.71,573.984 C2209.11,573.984 2204.81,572.421 2201.8,569.294 C2198.79,566.168 2197.28,561.664 2197.28,555.784 L2197.28,512.384 L2188.74,512.384 C2187.99,512.384 2187.36,512.163 2186.85,511.719 C2186.34,511.276 2186.08,510.588 2186.08,509.654 L2186.08,504.684 L2197.7,503.214 L2200.57,481.304 C2200.66,480.604 2200.97,480.033 2201.48,479.589 C2201.99,479.146 2202.65,478.924 2203.44,478.924 L2209.74,478.924 L2209.74,503.354 L2230.04,503.354 L2230.04,512.384 L2209.74,512.384 L2209.74,554.944 C2209.74,557.931 2210.46,560.148 2211.91,561.594 C2213.36,563.041 2215.22,563.764 2217.51,563.764 C2218.82,563.764 2219.95,563.589 2220.91,563.239 C2221.86,562.889 2222.69,562.504 2223.39,562.084 C2224.09,561.664 2224.69,561.279 2225.18,560.929 C2225.67,560.579 2226.1,560.404 2226.47,560.404 C2227.12,560.404 2227.71,560.801 2228.22,561.594 L2231.86,567.544 C2229.71,569.551 2227.12,571.126 2224.09,572.269 C2221.06,573.413 2217.93,573.984 2214.71,573.984 Z" style="stroke:none;fill-rule:nonzero;fill:#ffffff;fill-opacity:1;"/>
        </g>
        <g id="Shape5">
            <desc shapeID="5" type="2" basicInfo-basicType="0" basicInfo-roundedRectRadius="12" basicInfo-polygonSides="6" basicInfo-starPoints="5" bounding="rect(-691.867,-236.915,1383.73,473.829)" text="Swipe left if you don't" font-familyName="Lato" font-pixelSize="140" font-bold="0" font-underline="0" font-alignment="0" strokeStyle="0" markerStart="0" markerEnd="0" shadowEnabled="0" shadowOffsetX="0" shadowOffsetY="2" shadowBlur="4" shadowOpacity="160" blurEnabled="0" blurRadius="4" transform="matrix(1,0,0,1,1519.58,1182.04)" pers-center="0,0" pers-size="0,0" pers-start="0,0" pers-end="0,0" locked="0" mesh="" flag=""/>
            <path id="shapePath5" d="M891.277,1151.67 C890.857,1152.37 890.414,1152.9 889.947,1153.25 C889.48,1153.6 888.874,1153.77 888.127,1153.77 C887.334,1153.77 886.412,1153.38 885.362,1152.58 C884.312,1151.79 882.982,1150.92 881.372,1149.96 C879.762,1149 877.825,1148.13 875.562,1147.33 C873.299,1146.54 870.557,1146.14 867.337,1146.14 C864.304,1146.14 861.62,1146.55 859.287,1147.37 C856.954,1148.19 855.005,1149.29 853.442,1150.69 C851.879,1152.09 850.7,1153.74 849.907,1155.63 C849.114,1157.52 848.717,1159.56 848.717,1161.75 C848.717,1164.55 849.405,1166.88 850.782,1168.72 C852.159,1170.56 853.979,1172.14 856.242,1173.44 C858.505,1174.75 861.072,1175.88 863.942,1176.84 C866.812,1177.8 869.752,1178.79 872.762,1179.81 C875.772,1180.84 878.712,1182 881.582,1183.28 C884.452,1184.56 887.019,1186.18 889.282,1188.14 C891.545,1190.1 893.365,1192.51 894.742,1195.35 C896.119,1198.2 896.807,1201.7 896.807,1205.85 C896.807,1210.24 896.06,1214.36 894.567,1218.21 C893.074,1222.06 890.892,1225.41 888.022,1228.25 C885.152,1231.1 881.629,1233.34 877.452,1234.97 C873.275,1236.61 868.527,1237.42 863.207,1237.42 C856.72,1237.42 850.805,1236.25 845.462,1233.89 C840.119,1231.53 835.557,1228.35 831.777,1224.33 L835.697,1217.89 C836.07,1217.38 836.525,1216.95 837.062,1216.6 C837.599,1216.25 838.194,1216.07 838.847,1216.07 C839.827,1216.07 840.947,1216.6 842.207,1217.65 C843.467,1218.7 845.042,1219.85 846.932,1221.11 C848.822,1222.37 851.109,1223.53 853.792,1224.58 C856.475,1225.63 859.754,1226.15 863.627,1226.15 C866.847,1226.15 869.717,1225.71 872.237,1224.82 C874.757,1223.94 876.892,1222.69 878.642,1221.08 C880.392,1219.47 881.734,1217.54 882.667,1215.3 C883.6,1213.06 884.067,1210.57 884.067,1207.81 C884.067,1204.78 883.379,1202.3 882.002,1200.36 C880.625,1198.42 878.817,1196.8 876.577,1195.49 C874.337,1194.19 871.782,1193.08 868.912,1192.17 C866.042,1191.26 863.102,1190.33 860.092,1189.37 C857.082,1188.41 854.142,1187.3 851.272,1186.04 C848.402,1184.78 845.847,1183.15 843.607,1181.14 C841.367,1179.14 839.559,1176.63 838.182,1173.62 C836.805,1170.61 836.117,1166.89 836.117,1162.45 C836.117,1158.91 836.805,1155.48 838.182,1152.16 C839.559,1148.85 841.554,1145.91 844.167,1143.34 C846.78,1140.78 850.012,1138.72 853.862,1137.18 C857.712,1135.64 862.134,1134.87 867.127,1134.87 C872.727,1134.87 877.837,1135.76 882.457,1137.53 C887.077,1139.31 891.114,1141.87 894.567,1145.23 L891.277,1151.67 M902.884,1165.39 L912.684,1165.39 C913.711,1165.39 914.551,1165.65 915.204,1166.16 C915.858,1166.68 916.301,1167.28 916.534,1167.98 L930.114,1213.62 C930.488,1215.3 930.838,1216.93 931.164,1218.49 C931.491,1220.05 931.771,1221.63 932.004,1223.21 C932.378,1221.63 932.798,1220.05 933.264,1218.49 C933.731,1216.93 934.221,1215.3 934.734,1213.62 L949.714,1167.7 C949.948,1167 950.356,1166.42 950.939,1165.95 C951.523,1165.49 952.258,1165.25 953.144,1165.25 L958.534,1165.25 C959.468,1165.25 960.238,1165.49 960.844,1165.95 C961.451,1166.42 961.871,1167 962.104,1167.7 L976.734,1213.62 C977.248,1215.26 977.703,1216.87 978.099,1218.45 C978.496,1220.04 978.881,1221.6 979.254,1223.14 C979.488,1221.6 979.791,1219.99 980.164,1218.31 C980.538,1216.63 980.934,1215.07 981.354,1213.62 L995.214,1167.98 C995.448,1167.24 995.891,1166.62 996.544,1166.13 C997.198,1165.64 997.968,1165.39 998.854,1165.39 L1008.23,1165.39 L985.274,1236.3 L975.404,1236.3 C974.191,1236.3 973.351,1235.51 972.884,1233.92 L957.204,1185.83 C956.831,1184.76 956.528,1183.68 956.294,1182.58 C956.061,1181.48 955.828,1180.4 955.594,1179.32 C955.361,1180.4 955.128,1181.49 954.894,1182.61 C954.661,1183.73 954.358,1184.83 953.984,1185.9 L938.094,1233.92 C937.581,1235.51 936.624,1236.3 935.224,1236.3 L925.844,1236.3 L902.884,1165.39 M1033.22,1165.39 L1033.22,1236.3 L1020.76,1236.3 L1020.76,1165.39 L1033.22,1165.39 M1036.02,1143.13 C1036.02,1144.35 1035.77,1145.48 1035.28,1146.53 C1034.79,1147.58 1034.14,1148.51 1033.32,1149.33 C1032.51,1150.15 1031.56,1150.79 1030.49,1151.25 C1029.42,1151.72 1028.27,1151.95 1027.06,1151.95 C1025.85,1151.95 1024.71,1151.72 1023.66,1151.25 C1022.61,1150.79 1021.68,1150.15 1020.86,1149.33 C1020.05,1148.51 1019.41,1147.58 1018.94,1146.53 C1018.47,1145.48 1018.24,1144.35 1018.24,1143.13 C1018.24,1141.92 1018.47,1140.77 1018.94,1139.67 C1019.41,1138.57 1020.05,1137.62 1020.86,1136.8 C1021.68,1135.98 1022.61,1135.34 1023.66,1134.87 C1024.71,1134.41 1025.85,1134.17 1027.06,1134.17 C1028.27,1134.17 1029.42,1134.41 1030.49,1134.87 C1031.56,1135.34 1032.51,1135.98 1033.32,1136.8 C1034.14,1137.62 1034.79,1138.57 1035.28,1139.67 C1035.77,1140.77 1036.02,1141.92 1036.02,1143.13 M1055.19,1260.31 L1055.19,1165.39 L1062.61,1165.39 C1064.38,1165.39 1065.5,1166.26 1065.97,1167.98 L1067.02,1176.38 C1070.05,1172.7 1073.52,1169.73 1077.41,1167.49 C1081.31,1165.25 1085.8,1164.13 1090.89,1164.13 C1094.95,1164.13 1098.63,1164.92 1101.95,1166.48 C1105.26,1168.04 1108.08,1170.35 1110.42,1173.41 C1112.75,1176.47 1114.55,1180.26 1115.81,1184.78 C1117.07,1189.31 1117.7,1194.51 1117.7,1200.39 C1117.7,1205.62 1117,1210.49 1115.6,1214.99 C1114.2,1219.49 1112.19,1223.39 1109.58,1226.68 C1106.96,1229.97 1103.76,1232.56 1099.95,1234.45 C1096.15,1236.34 1091.87,1237.28 1087.11,1237.28 C1082.72,1237.28 1078.98,1236.56 1075.87,1235.11 C1072.77,1233.67 1070.03,1231.61 1067.65,1228.95 L1067.65,1260.31 L1055.19,1260.31 M1086.76,1174.21 C1082.7,1174.21 1079.14,1175.15 1076.08,1177.01 C1073.03,1178.88 1070.21,1181.52 1067.65,1184.92 L1067.65,1219.22 C1069.93,1222.3 1072.44,1224.47 1075.17,1225.73 C1077.9,1226.99 1080.95,1227.62 1084.31,1227.62 C1090.89,1227.62 1095.95,1225.27 1099.5,1220.55 C1103.04,1215.84 1104.82,1209.12 1104.82,1200.39 C1104.82,1195.77 1104.41,1191.81 1103.59,1188.49 C1102.78,1185.18 1101.6,1182.46 1100.06,1180.34 C1098.52,1178.22 1096.63,1176.66 1094.39,1175.68 C1092.15,1174.7 1089.6,1174.21 1086.76,1174.21 M1160.52,1164.27 C1164.77,1164.27 1168.69,1164.99 1172.28,1166.41 C1175.88,1167.83 1178.98,1169.89 1181.59,1172.57 C1184.21,1175.25 1186.25,1178.57 1187.72,1182.51 C1189.19,1186.45 1189.92,1190.94 1189.92,1195.98 C1189.92,1197.94 1189.71,1199.25 1189.29,1199.9 C1188.87,1200.56 1188.08,1200.88 1186.91,1200.88 L1139.73,1200.88 C1139.83,1205.36 1140.43,1209.26 1141.55,1212.57 C1142.67,1215.89 1144.21,1218.65 1146.17,1220.87 C1148.13,1223.09 1150.47,1224.74 1153.17,1225.84 C1155.88,1226.94 1158.91,1227.48 1162.27,1227.48 C1165.4,1227.48 1168.09,1227.12 1170.36,1226.4 C1172.62,1225.68 1174.57,1224.89 1176.2,1224.05 C1177.84,1223.21 1179.2,1222.43 1180.3,1221.71 C1181.39,1220.99 1182.34,1220.62 1183.13,1220.62 C1184.16,1220.62 1184.95,1221.02 1185.51,1221.81 L1189.01,1226.36 C1187.47,1228.23 1185.63,1229.85 1183.48,1231.23 C1181.34,1232.61 1179.04,1233.74 1176.59,1234.62 C1174.14,1235.51 1171.61,1236.18 1168.99,1236.62 C1166.38,1237.06 1163.79,1237.28 1161.22,1237.28 C1156.32,1237.28 1151.81,1236.46 1147.68,1234.8 C1143.55,1233.14 1139.98,1230.72 1136.97,1227.52 C1133.96,1224.32 1131.61,1220.37 1129.93,1215.65 C1128.25,1210.94 1127.41,1205.53 1127.41,1199.41 C1127.41,1194.47 1128.17,1189.85 1129.69,1185.55 C1131.2,1181.26 1133.39,1177.54 1136.23,1174.39 C1139.08,1171.24 1142.56,1168.77 1146.66,1166.97 C1150.77,1165.17 1155.39,1164.27 1160.52,1164.27 M1160.8,1173.44 C1154.78,1173.44 1150.05,1175.18 1146.59,1178.66 C1143.14,1182.14 1140.99,1186.95 1140.15,1193.11 L1178.72,1193.11 C1178.72,1190.22 1178.33,1187.57 1177.53,1185.17 C1176.74,1182.77 1175.57,1180.69 1174.03,1178.94 C1172.49,1177.19 1170.61,1175.84 1168.4,1174.88 C1166.18,1173.92 1163.65,1173.44 1160.8,1173.44 M1246.69,1133.19 L1246.69,1236.3 L1234.23,1236.3 L1234.23,1133.19 L1246.69,1133.19 M1296.73,1164.27 C1300.97,1164.27 1304.89,1164.99 1308.49,1166.41 C1312.08,1167.83 1315.18,1169.89 1317.8,1172.57 C1320.41,1175.25 1322.45,1178.57 1323.92,1182.51 C1325.39,1186.45 1326.13,1190.94 1326.13,1195.98 C1326.13,1197.94 1325.92,1199.25 1325.5,1199.9 C1325.08,1200.56 1324.28,1200.88 1323.12,1200.88 L1275.94,1200.88 C1276.03,1205.36 1276.64,1209.26 1277.76,1212.57 C1278.88,1215.89 1280.42,1218.65 1282.38,1220.87 C1284.34,1223.09 1286.67,1224.74 1289.38,1225.84 C1292.08,1226.94 1295.12,1227.48 1298.48,1227.48 C1301.6,1227.48 1304.3,1227.12 1306.56,1226.4 C1308.82,1225.68 1310.77,1224.89 1312.41,1224.05 C1314.04,1223.21 1315.4,1222.43 1316.5,1221.71 C1317.6,1220.99 1318.54,1220.62 1319.34,1220.62 C1320.36,1220.62 1321.16,1221.02 1321.72,1221.81 L1325.22,1226.36 C1323.68,1228.23 1321.83,1229.85 1319.69,1231.23 C1317.54,1232.61 1315.24,1233.74 1312.79,1234.62 C1310.34,1235.51 1307.81,1236.18 1305.2,1236.62 C1302.58,1237.06 1299.99,1237.28 1297.43,1237.28 C1292.53,1237.28 1288.01,1236.46 1283.88,1234.8 C1279.75,1233.14 1276.18,1230.72 1273.17,1227.52 C1270.16,1224.32 1267.82,1220.37 1266.14,1215.65 C1264.46,1210.94 1263.62,1205.53 1263.62,1199.41 C1263.62,1194.47 1264.37,1189.85 1265.89,1185.55 C1267.41,1181.26 1269.59,1177.54 1272.44,1174.39 C1275.28,1171.24 1278.76,1168.77 1282.87,1166.97 C1286.97,1165.17 1291.59,1164.27 1296.73,1164.27 M1297.01,1173.44 C1290.99,1173.44 1286.25,1175.18 1282.8,1178.66 C1279.34,1182.14 1277.2,1186.95 1276.36,1193.11 L1314.93,1193.11 C1314.93,1190.22 1314.53,1187.57 1313.74,1185.17 C1312.94,1182.77 1311.78,1180.69 1310.24,1178.94 C1308.7,1177.19 1306.82,1175.84 1304.6,1174.88 C1302.38,1173.92 1299.85,1173.44 1297.01,1173.44 M1344.82,1236.3 L1344.82,1176.03 L1336.98,1175.12 C1335.99,1174.89 1335.19,1174.53 1334.56,1174.04 C1333.93,1173.55 1333.61,1172.84 1333.61,1171.9 L1333.61,1166.79 L1344.82,1166.79 L1344.82,1159.93 C1344.82,1155.87 1345.39,1152.27 1346.53,1149.12 C1347.67,1145.97 1349.31,1143.31 1351.43,1141.14 C1353.55,1138.97 1356.11,1137.32 1359.1,1136.2 C1362.08,1135.08 1365.44,1134.52 1369.18,1134.52 C1372.35,1134.52 1375.29,1134.99 1377.99,1135.92 L1377.72,1142.15 C1377.67,1143.09 1377.27,1143.65 1376.53,1143.83 C1375.78,1144.02 1374.73,1144.11 1373.38,1144.11 L1371.21,1144.11 C1369.06,1144.11 1367.11,1144.39 1365.36,1144.95 C1363.61,1145.51 1362.1,1146.42 1360.85,1147.68 C1359.59,1148.94 1358.62,1150.6 1357.94,1152.65 C1357.26,1154.71 1356.93,1157.25 1356.93,1160.28 L1356.93,1166.79 L1377.44,1166.79 L1377.44,1175.82 L1357.35,1175.82 L1357.35,1236.3 L1344.82,1236.3 M1410.68,1237.42 C1405.08,1237.42 1400.77,1235.86 1397.76,1232.73 C1394.75,1229.61 1393.25,1225.1 1393.25,1219.22 L1393.25,1175.82 L1384.71,1175.82 C1383.96,1175.82 1383.33,1175.6 1382.82,1175.16 C1382.3,1174.72 1382.05,1174.03 1382.05,1173.09 L1382.05,1168.12 L1393.67,1166.65 L1396.54,1144.74 C1396.63,1144.04 1396.93,1143.47 1397.45,1143.03 C1397.96,1142.59 1398.61,1142.36 1399.41,1142.36 L1405.71,1142.36 L1405.71,1166.79 L1426.01,1166.79 L1426.01,1175.82 L1405.71,1175.82 L1405.71,1218.38 C1405.71,1221.37 1406.43,1223.59 1407.88,1225.03 C1409.32,1226.48 1411.19,1227.2 1413.48,1227.2 C1414.78,1227.2 1415.92,1227.03 1416.87,1226.68 C1417.83,1226.33 1418.66,1225.94 1419.36,1225.52 C1420.06,1225.1 1420.65,1224.72 1421.14,1224.37 C1421.63,1224.02 1422.06,1223.84 1422.44,1223.84 C1423.09,1223.84 1423.67,1224.24 1424.19,1225.03 L1427.83,1230.98 C1425.68,1232.99 1423.09,1234.57 1420.06,1235.71 C1417.02,1236.85 1413.9,1237.42 1410.68,1237.42 M1482.28,1165.39 L1482.28,1236.3 L1469.82,1236.3 L1469.82,1165.39 L1482.28,1165.39 M1485.08,1143.13 C1485.08,1144.35 1484.84,1145.48 1484.35,1146.53 C1483.86,1147.58 1483.2,1148.51 1482.39,1149.33 C1481.57,1150.15 1480.62,1150.79 1479.55,1151.25 C1478.48,1151.72 1477.33,1151.95 1476.12,1151.95 C1474.91,1151.95 1473.78,1151.72 1472.73,1151.25 C1471.68,1150.79 1470.74,1150.15 1469.93,1149.33 C1469.11,1148.51 1468.47,1147.58 1468,1146.53 C1467.53,1145.48 1467.3,1144.35 1467.3,1143.13 C1467.3,1141.92 1467.53,1140.77 1468,1139.67 C1468.47,1138.57 1469.11,1137.62 1469.93,1136.8 C1470.74,1135.98 1471.68,1135.34 1472.73,1134.87 C1473.78,1134.41 1474.91,1134.17 1476.12,1134.17 C1477.33,1134.17 1478.48,1134.41 1479.55,1134.87 C1480.62,1135.34 1481.57,1135.98 1482.39,1136.8 C1483.2,1137.62 1483.86,1138.57 1484.35,1139.67 C1484.84,1140.77 1485.08,1141.92 1485.08,1143.13 M1507.05,1236.3 L1507.05,1176.03 L1499.21,1175.12 C1498.23,1174.89 1497.42,1174.53 1496.79,1174.04 C1496.16,1173.55 1495.85,1172.84 1495.85,1171.9 L1495.85,1166.79 L1507.05,1166.79 L1507.05,1159.93 C1507.05,1155.87 1507.62,1152.27 1508.76,1149.12 C1509.91,1145.97 1511.54,1143.31 1513.66,1141.14 C1515.79,1138.97 1518.34,1137.32 1521.33,1136.2 C1524.32,1135.08 1527.68,1134.52 1531.41,1134.52 C1534.58,1134.52 1537.52,1134.99 1540.23,1135.92 L1539.95,1142.15 C1539.9,1143.09 1539.51,1143.65 1538.76,1143.83 C1538.01,1144.02 1536.96,1144.11 1535.61,1144.11 L1533.44,1144.11 C1531.29,1144.11 1529.34,1144.39 1527.59,1144.95 C1525.84,1145.51 1524.34,1146.42 1523.08,1147.68 C1521.82,1148.94 1520.85,1150.6 1520.17,1152.65 C1519.5,1154.71 1519.16,1157.25 1519.16,1160.28 L1519.16,1166.79 L1539.67,1166.79 L1539.67,1175.82 L1519.58,1175.82 L1519.58,1236.3 L1507.05,1236.3 M1599.23,1257.23 C1598.81,1258.17 1598.28,1258.91 1597.65,1259.47 C1597.02,1260.03 1596.05,1260.31 1594.75,1260.31 L1585.51,1260.31 L1598.46,1232.17 L1569.2,1165.39 L1579.98,1165.39 C1581.05,1165.39 1581.89,1165.66 1582.5,1166.2 C1583.1,1166.74 1583.55,1167.33 1583.83,1167.98 L1602.8,1212.64 C1603.22,1213.67 1603.58,1214.7 1603.88,1215.72 C1604.19,1216.75 1604.45,1217.8 1604.69,1218.87 C1605.01,1217.8 1605.34,1216.75 1605.67,1215.72 C1605.99,1214.7 1606.37,1213.65 1606.79,1212.57 L1625.2,1167.98 C1625.48,1167.24 1625.96,1166.62 1626.63,1166.13 C1627.31,1165.64 1628.04,1165.39 1628.84,1165.39 L1638.78,1165.39 L1599.23,1257.23 M1677,1164.27 C1682.18,1164.27 1686.85,1165.14 1691.03,1166.86 C1695.21,1168.59 1698.75,1171.04 1701.67,1174.21 C1704.59,1177.39 1706.83,1181.23 1708.39,1185.73 C1709.95,1190.23 1710.74,1195.26 1710.74,1200.81 C1710.74,1206.41 1709.95,1211.45 1708.39,1215.93 C1706.83,1220.41 1704.59,1224.24 1701.67,1227.41 C1698.75,1230.59 1695.21,1233.03 1691.03,1234.73 C1686.85,1236.43 1682.18,1237.28 1677,1237.28 C1671.82,1237.28 1667.14,1236.43 1662.96,1234.73 C1658.78,1233.03 1655.23,1230.59 1652.29,1227.41 C1649.35,1224.24 1647.08,1220.41 1645.5,1215.93 C1643.91,1211.45 1643.12,1206.41 1643.12,1200.81 C1643.12,1195.26 1643.91,1190.23 1645.5,1185.73 C1647.08,1181.23 1649.35,1177.39 1652.29,1174.21 C1655.23,1171.04 1658.78,1168.59 1662.96,1166.86 C1667.14,1165.14 1671.82,1164.27 1677,1164.27 M1677,1227.55 C1684,1227.55 1689.22,1225.21 1692.68,1220.52 C1696.13,1215.83 1697.86,1209.28 1697.86,1200.88 C1697.86,1192.44 1696.13,1185.86 1692.68,1181.14 C1689.22,1176.43 1684,1174.07 1677,1174.07 C1673.45,1174.07 1670.37,1174.68 1667.76,1175.89 C1665.14,1177.11 1662.96,1178.86 1661.21,1181.14 C1659.46,1183.43 1658.15,1186.24 1657.29,1189.58 C1656.43,1192.92 1656,1196.68 1656,1200.88 C1656,1205.08 1656.43,1208.84 1657.29,1212.15 C1658.15,1215.47 1659.46,1218.26 1661.21,1220.52 C1662.96,1222.78 1665.14,1224.52 1667.76,1225.73 C1670.37,1226.95 1673.45,1227.55 1677,1227.55 M1736.9,1165.39 L1736.9,1210.61 C1736.9,1215.98 1738.14,1220.13 1740.61,1223.07 C1743.09,1226.01 1746.82,1227.48 1751.81,1227.48 C1755.45,1227.48 1758.88,1226.62 1762.1,1224.89 C1765.32,1223.17 1768.29,1220.76 1770.99,1217.68 L1770.99,1165.39 L1783.45,1165.39 L1783.45,1236.3 L1776.03,1236.3 C1774.26,1236.3 1773.14,1235.44 1772.67,1233.71 L1771.69,1226.08 C1768.61,1229.49 1765.16,1232.23 1761.33,1234.31 C1757.51,1236.39 1753.12,1237.42 1748.17,1237.42 C1744.3,1237.42 1740.88,1236.78 1737.92,1235.5 C1734.96,1234.22 1732.47,1232.41 1730.46,1230.07 C1728.46,1227.74 1726.95,1224.92 1725.95,1221.6 C1724.95,1218.29 1724.44,1214.63 1724.44,1210.61 L1724.44,1165.39 L1736.9,1165.39 M1880.88,1236.3 C1879.1,1236.3 1877.98,1235.44 1877.52,1233.71 L1876.4,1225.1 C1873.36,1228.79 1869.9,1231.74 1866,1233.96 C1862.11,1236.18 1857.64,1237.28 1852.6,1237.28 C1848.54,1237.28 1844.85,1236.5 1841.54,1234.94 C1838.22,1233.38 1835.4,1231.08 1833.07,1228.04 C1830.73,1225.01 1828.94,1221.23 1827.68,1216.7 C1826.42,1212.18 1825.79,1206.97 1825.79,1201.09 C1825.79,1195.87 1826.49,1191 1827.89,1186.5 C1829.29,1182 1831.31,1178.09 1833.94,1174.77 C1836.58,1171.46 1839.79,1168.86 1843.57,1166.97 C1847.35,1165.08 1851.64,1164.13 1856.45,1164.13 C1860.79,1164.13 1864.5,1164.87 1867.58,1166.34 C1870.66,1167.81 1873.41,1169.87 1875.84,1172.53 L1875.84,1133.19 L1888.3,1133.19 L1888.3,1236.3 L1880.88,1236.3 M1856.73,1227.2 C1860.79,1227.2 1864.35,1226.27 1867.4,1224.4 C1870.46,1222.54 1873.27,1219.9 1875.84,1216.49 L1875.84,1182.19 C1873.55,1179.11 1871.04,1176.96 1868.31,1175.72 C1865.58,1174.48 1862.56,1173.86 1859.25,1173.86 C1852.62,1173.86 1847.53,1176.22 1843.99,1180.93 C1840.44,1185.65 1838.67,1192.37 1838.67,1201.09 C1838.67,1205.71 1839.06,1209.67 1839.86,1212.96 C1840.65,1216.25 1841.82,1218.96 1843.36,1221.08 C1844.9,1223.2 1846.79,1224.75 1849.03,1225.73 C1851.27,1226.71 1853.83,1227.2 1856.73,1227.2 M1937.92,1164.27 C1943.1,1164.27 1947.78,1165.14 1951.95,1166.86 C1956.13,1168.59 1959.68,1171.04 1962.59,1174.21 C1965.51,1177.39 1967.75,1181.23 1969.31,1185.73 C1970.88,1190.23 1971.66,1195.26 1971.66,1200.81 C1971.66,1206.41 1970.88,1211.45 1969.31,1215.93 C1967.75,1220.41 1965.51,1224.24 1962.59,1227.41 C1959.68,1230.59 1956.13,1233.03 1951.95,1234.73 C1947.78,1236.43 1943.1,1237.28 1937.92,1237.28 C1932.74,1237.28 1928.06,1236.43 1923.88,1234.73 C1919.71,1233.03 1916.15,1230.59 1913.21,1227.41 C1910.27,1224.24 1908,1220.41 1906.42,1215.93 C1904.83,1211.45 1904.04,1206.41 1904.04,1200.81 C1904.04,1195.26 1904.83,1190.23 1906.42,1185.73 C1908,1181.23 1910.27,1177.39 1913.21,1174.21 C1916.15,1171.04 1919.71,1168.59 1923.88,1166.86 C1928.06,1165.14 1932.74,1164.27 1937.92,1164.27 M1937.92,1227.55 C1944.92,1227.55 1950.14,1225.21 1953.6,1220.52 C1957.05,1215.83 1958.78,1209.28 1958.78,1200.88 C1958.78,1192.44 1957.05,1185.86 1953.6,1181.14 C1950.14,1176.43 1944.92,1174.07 1937.92,1174.07 C1934.37,1174.07 1931.29,1174.68 1928.68,1175.89 C1926.06,1177.11 1923.88,1178.86 1922.13,1181.14 C1920.38,1183.43 1919.08,1186.24 1918.21,1189.58 C1917.35,1192.92 1916.92,1196.68 1916.92,1200.88 C1916.92,1205.08 1917.35,1208.84 1918.21,1212.15 C1919.08,1215.47 1920.38,1218.26 1922.13,1220.52 C1923.88,1222.78 1926.06,1224.52 1928.68,1225.73 C1931.29,1226.95 1934.37,1227.55 1937.92,1227.55 M1987.05,1236.3 L1987.05,1165.39 L1994.47,1165.39 C1996.24,1165.39 1997.36,1166.26 1997.83,1167.98 L1998.81,1175.68 C2001.89,1172.28 2005.33,1169.52 2009.13,1167.42 C2012.93,1165.32 2017.33,1164.27 2022.33,1164.27 C2026.2,1164.27 2029.62,1164.92 2032.58,1166.2 C2035.54,1167.48 2038.02,1169.3 2040,1171.66 C2041.98,1174.02 2043.49,1176.85 2044.52,1180.16 C2045.54,1183.48 2046.06,1187.14 2046.06,1191.15 L2046.06,1236.3 L2033.6,1236.3 L2033.6,1191.15 C2033.6,1185.79 2032.37,1181.62 2029.92,1178.66 C2027.47,1175.7 2023.73,1174.21 2018.69,1174.21 C2015,1174.21 2011.56,1175.1 2008.36,1176.87 C2005.16,1178.65 2002.21,1181.05 1999.51,1184.08 L1999.51,1236.3 L1987.05,1236.3 M2071.11,1135.99 L2071.11,1156.29 L2069.99,1167.14 C2069.85,1168.64 2069.46,1169.79 2068.8,1170.61 C2068.15,1171.43 2067.1,1171.83 2065.65,1171.83 C2064.44,1171.83 2063.49,1171.43 2062.82,1170.61 C2062.14,1169.79 2061.66,1168.64 2061.38,1167.14 L2060.26,1156.29 L2060.26,1135.99 L2071.11,1135.99 M2113.52,1237.42 C2107.92,1237.42 2103.62,1235.86 2100.61,1232.73 C2097.6,1229.61 2096.09,1225.1 2096.09,1219.22 L2096.09,1175.82 L2087.55,1175.82 C2086.8,1175.82 2086.17,1175.6 2085.66,1175.16 C2085.15,1174.72 2084.89,1174.03 2084.89,1173.09 L2084.89,1168.12 L2096.51,1166.65 L2099.38,1144.74 C2099.47,1144.04 2099.78,1143.47 2100.29,1143.03 C2100.8,1142.59 2101.46,1142.36 2102.25,1142.36 L2108.55,1142.36 L2108.55,1166.79 L2128.85,1166.79 L2128.85,1175.82 L2108.55,1175.82 L2108.55,1218.38 C2108.55,1221.37 2109.27,1223.59 2110.72,1225.03 C2112.17,1226.48 2114.03,1227.2 2116.32,1227.2 C2117.63,1227.2 2118.76,1227.03 2119.72,1226.68 C2120.67,1226.33 2121.5,1225.94 2122.2,1225.52 C2122.9,1225.1 2123.5,1224.72 2123.99,1224.37 C2124.48,1224.02 2124.91,1223.84 2125.28,1223.84 C2125.93,1223.84 2126.52,1224.24 2127.03,1225.03 L2130.67,1230.98 C2128.52,1232.99 2125.93,1234.57 2122.9,1235.71 C2119.87,1236.85 2116.74,1237.42 2113.52,1237.42 Z" style="stroke:none;fill-rule:nonzero;fill:#ffffff;fill-opacity:1;"/>
        </g>
        <g id="Shape6">
            <desc shapeID="6" type="2" basicInfo-basicType="0" basicInfo-roundedRectRadius="12" basicInfo-polygonSides="6" basicInfo-starPoints="5" bounding="rect(-846.172,-236.915,1692.34,473.829)" text="Double tap for more info" font-familyName="Lato" font-pixelSize="140" font-bold="0" font-underline="0" font-alignment="0" strokeStyle="0" markerStart="0" markerEnd="0" shadowEnabled="0" shadowOffsetX="0" shadowOffsetY="2" shadowBlur="4" shadowOpacity="160" blurEnabled="0" blurRadius="4" transform="matrix(1,0,0,1,1665.77,1873.4)" pers-center="0,0" pers-size="0,0" pers-start="0,0" pers-end="0,0" locked="0" mesh="" flag=""/>
            <path id="shapePath6" d="M918.717,1877.55 C918.717,1885.06 917.527,1891.9 915.147,1898.06 C912.767,1904.22 909.407,1909.49 905.067,1913.88 C900.727,1918.26 895.524,1921.66 889.457,1924.06 C883.39,1926.46 876.67,1927.67 869.297,1927.67 L831.777,1927.67 L831.777,1827.36 L869.297,1827.36 C876.67,1827.36 883.39,1828.56 889.457,1830.96 C895.524,1833.36 900.727,1836.77 905.067,1841.18 C909.407,1845.59 912.767,1850.88 915.147,1857.04 C917.527,1863.2 918.717,1870.03 918.717,1877.55 M904.787,1877.55 C904.787,1871.39 903.947,1865.88 902.267,1861.03 C900.587,1856.17 898.207,1852.07 895.127,1848.71 C892.047,1845.35 888.314,1842.78 883.927,1841.01 C879.54,1839.23 874.664,1838.35 869.297,1838.35 L845.427,1838.35 L845.427,1916.68 L869.297,1916.68 C874.664,1916.68 879.54,1915.79 883.927,1914.02 C888.314,1912.24 892.047,1909.69 895.127,1906.35 C898.207,1903.01 900.587,1898.92 902.267,1894.07 C903.947,1889.21 904.787,1883.71 904.787,1877.55 M963.923,1855.64 C969.103,1855.64 973.781,1856.5 977.958,1858.23 C982.135,1859.95 985.682,1862.4 988.598,1865.58 C991.515,1868.75 993.755,1872.59 995.318,1877.09 C996.882,1881.59 997.663,1886.62 997.663,1892.18 C997.663,1897.78 996.882,1902.82 995.318,1907.3 C993.755,1911.78 991.515,1915.6 988.598,1918.78 C985.682,1921.95 982.135,1924.39 977.958,1926.09 C973.781,1927.79 969.103,1928.65 963.923,1928.65 C958.743,1928.65 954.065,1927.79 949.888,1926.09 C945.711,1924.39 942.153,1921.95 939.213,1918.78 C936.273,1915.6 934.01,1911.78 932.423,1907.3 C930.836,1902.82 930.043,1897.78 930.043,1892.18 C930.043,1886.62 930.836,1881.59 932.423,1877.09 C934.01,1872.59 936.273,1868.75 939.213,1865.58 C942.153,1862.4 945.711,1859.95 949.888,1858.23 C954.065,1856.5 958.743,1855.64 963.923,1855.64 M963.923,1918.92 C970.923,1918.92 976.15,1916.57 979.603,1911.88 C983.057,1907.19 984.783,1900.65 984.783,1892.25 C984.783,1883.8 983.057,1877.22 979.603,1872.51 C976.15,1867.79 970.923,1865.44 963.923,1865.44 C960.377,1865.44 957.297,1866.04 954.683,1867.26 C952.07,1868.47 949.888,1870.22 948.138,1872.51 C946.388,1874.79 945.081,1877.6 944.218,1880.94 C943.355,1884.28 942.923,1888.05 942.923,1892.25 C942.923,1896.45 943.355,1900.2 944.218,1903.52 C945.081,1906.83 946.388,1909.62 948.138,1911.88 C949.888,1914.14 952.07,1915.88 954.683,1917.1 C957.297,1918.31 960.377,1918.92 963.923,1918.92 M1023.83,1856.76 L1023.83,1901.98 C1023.83,1907.34 1025.07,1911.5 1027.54,1914.44 C1030.01,1917.38 1033.75,1918.85 1038.74,1918.85 C1042.38,1918.85 1045.81,1917.98 1049.03,1916.26 C1052.25,1914.53 1055.21,1912.13 1057.92,1909.05 L1057.92,1856.76 L1070.38,1856.76 L1070.38,1927.67 L1062.96,1927.67 C1061.19,1927.67 1060.07,1926.8 1059.6,1925.08 L1058.62,1917.45 C1055.54,1920.85 1052.09,1923.59 1048.26,1925.67 C1044.43,1927.75 1040.05,1928.79 1035.1,1928.79 C1031.23,1928.79 1027.81,1928.14 1024.85,1926.86 C1021.88,1925.58 1019.4,1923.77 1017.39,1921.44 C1015.38,1919.1 1013.88,1916.28 1012.88,1912.97 C1011.87,1909.65 1011.37,1905.99 1011.37,1901.98 L1011.37,1856.76 L1023.83,1856.76 M1091.3,1927.67 L1091.3,1824.56 L1103.83,1824.56 L1103.83,1866.98 C1106.77,1863.57 1110.14,1860.83 1113.94,1858.75 C1117.75,1856.67 1122.1,1855.64 1127,1855.64 C1131.11,1855.64 1134.82,1856.41 1138.13,1857.95 C1141.44,1859.49 1144.27,1861.78 1146.6,1864.84 C1148.93,1867.9 1150.73,1871.68 1151.99,1876.18 C1153.25,1880.68 1153.88,1885.88 1153.88,1891.76 C1153.88,1896.98 1153.18,1901.85 1151.78,1906.35 C1150.38,1910.85 1148.36,1914.75 1145.72,1918.04 C1143.09,1921.33 1139.87,1923.92 1136.06,1925.81 C1132.26,1927.7 1127.98,1928.65 1123.22,1928.65 C1118.65,1928.65 1114.76,1927.76 1111.56,1925.99 C1108.37,1924.21 1105.58,1921.74 1103.2,1918.57 L1102.57,1925.01 C1102.2,1926.78 1101.12,1927.67 1099.35,1927.67 L1091.3,1927.67 M1122.94,1865.58 C1118.88,1865.58 1115.32,1866.51 1112.26,1868.38 C1109.21,1870.24 1106.4,1872.88 1103.83,1876.29 L1103.83,1910.59 C1106.07,1913.67 1108.55,1915.84 1111.28,1917.1 C1114.01,1918.36 1117.06,1918.99 1120.42,1918.99 C1127.05,1918.99 1132.13,1916.63 1135.68,1911.92 C1139.23,1907.2 1141,1900.48 1141,1891.76 C1141,1887.14 1140.59,1883.17 1139.77,1879.86 C1138.96,1876.54 1137.78,1873.82 1136.24,1871.7 C1134.7,1869.58 1132.81,1868.03 1130.57,1867.05 C1128.33,1866.07 1125.79,1865.58 1122.94,1865.58 M1182.99,1824.56 L1182.99,1927.67 L1170.53,1927.67 L1170.53,1824.56 L1182.99,1824.56 M1233.03,1855.64 C1237.27,1855.64 1241.19,1856.35 1244.79,1857.77 C1248.38,1859.19 1251.48,1861.25 1254.1,1863.93 C1256.71,1866.61 1258.75,1869.93 1260.22,1873.87 C1261.69,1877.81 1262.43,1882.31 1262.43,1887.35 C1262.43,1889.31 1262.22,1890.61 1261.8,1891.27 C1261.38,1891.92 1260.58,1892.25 1259.42,1892.25 L1212.24,1892.25 C1212.33,1896.73 1212.94,1900.62 1214.06,1903.94 C1215.18,1907.25 1216.72,1910.01 1218.68,1912.23 C1220.64,1914.45 1222.97,1916.1 1225.68,1917.2 C1228.38,1918.3 1231.42,1918.85 1234.78,1918.85 C1237.9,1918.85 1240.6,1918.48 1242.86,1917.76 C1245.13,1917.04 1247.07,1916.26 1248.71,1915.42 C1250.34,1914.58 1251.71,1913.79 1252.8,1913.07 C1253.9,1912.35 1254.84,1911.99 1255.64,1911.99 C1256.66,1911.99 1257.46,1912.38 1258.02,1913.18 L1261.52,1917.73 C1259.98,1919.59 1258.13,1921.21 1255.99,1922.59 C1253.84,1923.97 1251.54,1925.1 1249.09,1925.99 C1246.64,1926.87 1244.11,1927.54 1241.5,1927.98 C1238.88,1928.42 1236.29,1928.65 1233.73,1928.65 C1228.83,1928.65 1224.31,1927.82 1220.18,1926.16 C1216.05,1924.5 1212.48,1922.08 1209.47,1918.88 C1206.46,1915.68 1204.12,1911.73 1202.44,1907.02 C1200.76,1902.3 1199.92,1896.89 1199.92,1890.78 C1199.92,1885.83 1200.68,1881.21 1202.19,1876.92 C1203.71,1872.62 1205.89,1868.9 1208.74,1865.75 C1211.58,1862.6 1215.06,1860.13 1219.17,1858.33 C1223.27,1856.53 1227.89,1855.64 1233.03,1855.64 M1233.31,1864.81 C1227.29,1864.81 1222.55,1866.54 1219.1,1870.02 C1215.64,1873.5 1213.5,1878.32 1212.66,1884.48 L1251.23,1884.48 C1251.23,1881.58 1250.83,1878.93 1250.04,1876.53 C1249.24,1874.13 1248.08,1872.05 1246.54,1870.3 C1245,1868.55 1243.12,1867.2 1240.9,1866.24 C1238.69,1865.28 1236.15,1864.81 1233.31,1864.81 M1326.82,1928.79 C1321.22,1928.79 1316.92,1927.22 1313.91,1924.1 C1310.9,1920.97 1309.39,1916.47 1309.39,1910.59 L1309.39,1867.19 L1300.85,1867.19 C1300.11,1867.19 1299.48,1866.96 1298.96,1866.52 C1298.45,1866.08 1298.19,1865.39 1298.19,1864.46 L1298.19,1859.49 L1309.81,1858.02 L1312.68,1836.11 C1312.78,1835.41 1313.08,1834.83 1313.59,1834.39 C1314.11,1833.95 1314.76,1833.73 1315.55,1833.73 L1321.85,1833.73 L1321.85,1858.16 L1342.15,1858.16 L1342.15,1867.19 L1321.85,1867.19 L1321.85,1909.75 C1321.85,1912.73 1322.58,1914.95 1324.02,1916.4 C1325.47,1917.84 1327.34,1918.57 1329.62,1918.57 C1330.93,1918.57 1332.06,1918.39 1333.02,1918.04 C1333.97,1917.69 1334.8,1917.31 1335.5,1916.89 C1336.2,1916.47 1336.8,1916.08 1337.29,1915.73 C1337.78,1915.38 1338.21,1915.21 1338.58,1915.21 C1339.24,1915.21 1339.82,1915.6 1340.33,1916.4 L1343.97,1922.35 C1341.83,1924.35 1339.24,1925.93 1336.2,1927.07 C1333.17,1928.21 1330.04,1928.79 1326.82,1928.79 M1409.63,1927.67 L1404.1,1927.67 C1402.89,1927.67 1401.91,1927.48 1401.16,1927.11 C1400.41,1926.73 1399.92,1925.94 1399.69,1924.73 L1398.29,1918.15 C1396.42,1919.83 1394.6,1921.33 1392.83,1922.66 C1391.06,1923.99 1389.19,1925.11 1387.23,1926.02 C1385.27,1926.93 1383.18,1927.62 1380.97,1928.09 C1378.75,1928.55 1376.29,1928.79 1373.58,1928.79 C1370.83,1928.79 1368.25,1928.4 1365.85,1927.63 C1363.44,1926.86 1361.35,1925.71 1359.58,1924.17 C1357.81,1922.63 1356.4,1920.68 1355.35,1918.32 C1354.3,1915.96 1353.77,1913.18 1353.77,1909.96 C1353.77,1907.16 1354.54,1904.46 1356.08,1901.87 C1357.62,1899.28 1360.11,1896.98 1363.54,1894.98 C1366.97,1892.97 1371.46,1891.32 1377.01,1890.04 C1382.56,1888.76 1389.35,1888.02 1397.38,1887.84 L1397.38,1882.31 C1397.38,1876.8 1396.2,1872.63 1393.85,1869.81 C1391.49,1866.99 1388,1865.58 1383.38,1865.58 C1380.35,1865.58 1377.79,1865.96 1375.72,1866.73 C1373.64,1867.5 1371.84,1868.36 1370.33,1869.32 C1368.81,1870.28 1367.5,1871.14 1366.41,1871.91 C1365.31,1872.68 1364.22,1873.07 1363.15,1873.07 C1362.31,1873.07 1361.58,1872.84 1360.95,1872.4 C1360.32,1871.96 1359.81,1871.41 1359.44,1870.76 L1357.2,1866.77 C1361.12,1862.99 1365.34,1860.16 1369.87,1858.3 C1374.4,1856.43 1379.41,1855.5 1384.92,1855.5 C1388.89,1855.5 1392.41,1856.15 1395.49,1857.46 C1398.57,1858.76 1401.16,1860.58 1403.26,1862.92 C1405.36,1865.25 1406.95,1868.07 1408.02,1871.39 C1409.09,1874.7 1409.63,1878.34 1409.63,1882.31 L1409.63,1927.67 M1377.29,1920.04 C1379.48,1920.04 1381.49,1919.81 1383.31,1919.37 C1385.13,1918.93 1386.85,1918.3 1388.46,1917.48 C1390.07,1916.66 1391.61,1915.67 1393.08,1914.51 C1394.55,1913.34 1395.98,1912.01 1397.38,1910.52 L1397.38,1895.75 C1391.64,1895.93 1386.76,1896.39 1382.75,1897.11 C1378.74,1897.83 1375.47,1898.78 1372.95,1899.95 C1370.43,1901.11 1368.6,1902.49 1367.46,1904.08 C1366.31,1905.66 1365.74,1907.44 1365.74,1909.4 C1365.74,1911.26 1366.04,1912.87 1366.65,1914.23 C1367.26,1915.58 1368.07,1916.69 1369.1,1917.55 C1370.13,1918.41 1371.34,1919.04 1372.74,1919.44 C1374.14,1919.84 1375.66,1920.04 1377.29,1920.04 M1428.52,1951.68 L1428.52,1856.76 L1435.94,1856.76 C1437.71,1856.76 1438.83,1857.62 1439.3,1859.35 L1440.35,1867.75 C1443.38,1864.06 1446.85,1861.1 1450.75,1858.86 C1454.64,1856.62 1459.13,1855.5 1464.22,1855.5 C1468.28,1855.5 1471.97,1856.28 1475.28,1857.84 C1478.59,1859.4 1481.42,1861.71 1483.75,1864.77 C1486.08,1867.83 1487.88,1871.62 1489.14,1876.15 C1490.4,1880.67 1491.03,1885.88 1491.03,1891.76 C1491.03,1896.98 1490.33,1901.85 1488.93,1906.35 C1487.53,1910.85 1485.52,1914.75 1482.91,1918.04 C1480.3,1921.33 1477.09,1923.92 1473.29,1925.81 C1469.48,1927.7 1465.2,1928.65 1460.44,1928.65 C1456.05,1928.65 1452.31,1927.92 1449.21,1926.48 C1446.1,1925.03 1443.36,1922.98 1440.98,1920.32 L1440.98,1951.68 L1428.52,1951.68 M1460.09,1865.58 C1456.03,1865.58 1452.47,1866.51 1449.42,1868.38 C1446.36,1870.24 1443.55,1872.88 1440.98,1876.29 L1440.98,1910.59 C1443.27,1913.67 1445.78,1915.84 1448.51,1917.1 C1451.24,1918.36 1454.28,1918.99 1457.64,1918.99 C1464.22,1918.99 1469.28,1916.63 1472.83,1911.92 C1476.38,1907.2 1478.15,1900.48 1478.15,1891.76 C1478.15,1887.14 1477.74,1883.17 1476.93,1879.86 C1476.11,1876.54 1474.93,1873.82 1473.39,1871.7 C1471.85,1869.58 1469.96,1868.03 1467.72,1867.05 C1465.48,1866.07 1462.94,1865.58 1460.09,1865.58 M1535.6,1927.67 L1535.6,1867.4 L1527.76,1866.49 C1526.78,1866.25 1525.98,1865.89 1525.35,1865.4 C1524.72,1864.91 1524.4,1864.2 1524.4,1863.27 L1524.4,1858.16 L1535.6,1858.16 L1535.6,1851.3 C1535.6,1847.24 1536.17,1843.63 1537.32,1840.48 C1538.46,1837.33 1540.09,1834.67 1542.22,1832.5 C1544.34,1830.33 1546.89,1828.69 1549.88,1827.57 C1552.87,1826.45 1556.23,1825.89 1559.96,1825.89 C1563.13,1825.89 1566.07,1826.35 1568.78,1827.29 L1568.5,1833.52 C1568.45,1834.45 1568.06,1835.01 1567.31,1835.2 C1566.56,1835.38 1565.51,1835.48 1564.16,1835.48 L1561.99,1835.48 C1559.84,1835.48 1557.9,1835.76 1556.15,1836.32 C1554.4,1836.88 1552.89,1837.79 1551.63,1839.05 C1550.37,1840.31 1549.4,1841.96 1548.73,1844.02 C1548.05,1846.07 1547.71,1848.61 1547.71,1851.65 L1547.71,1858.16 L1568.22,1858.16 L1568.22,1867.19 L1548.13,1867.19 L1548.13,1927.67 L1535.6,1927.67 M1608.67,1855.64 C1613.85,1855.64 1618.53,1856.5 1622.71,1858.23 C1626.88,1859.95 1630.43,1862.4 1633.35,1865.58 C1636.26,1868.75 1638.5,1872.59 1640.07,1877.09 C1641.63,1881.59 1642.41,1886.62 1642.41,1892.18 C1642.41,1897.78 1641.63,1902.82 1640.07,1907.3 C1638.5,1911.78 1636.26,1915.6 1633.35,1918.78 C1630.43,1921.95 1626.88,1924.39 1622.71,1926.09 C1618.53,1927.79 1613.85,1928.65 1608.67,1928.65 C1603.49,1928.65 1598.81,1927.79 1594.64,1926.09 C1590.46,1924.39 1586.9,1921.95 1583.96,1918.78 C1581.02,1915.6 1578.76,1911.78 1577.17,1907.3 C1575.59,1902.82 1574.79,1897.78 1574.79,1892.18 C1574.79,1886.62 1575.59,1881.59 1577.17,1877.09 C1578.76,1872.59 1581.02,1868.75 1583.96,1865.58 C1586.9,1862.4 1590.46,1859.95 1594.64,1858.23 C1598.81,1856.5 1603.49,1855.64 1608.67,1855.64 M1608.67,1918.92 C1615.67,1918.92 1620.9,1916.57 1624.35,1911.88 C1627.81,1907.19 1629.53,1900.65 1629.53,1892.25 C1629.53,1883.8 1627.81,1877.22 1624.35,1872.51 C1620.9,1867.79 1615.67,1865.44 1608.67,1865.44 C1605.13,1865.44 1602.05,1866.04 1599.43,1867.26 C1596.82,1868.47 1594.64,1870.22 1592.89,1872.51 C1591.14,1874.79 1589.83,1877.6 1588.97,1880.94 C1588.1,1884.28 1587.67,1888.05 1587.67,1892.25 C1587.67,1896.45 1588.1,1900.2 1588.97,1903.52 C1589.83,1906.83 1591.14,1909.62 1592.89,1911.88 C1594.64,1914.14 1596.82,1915.88 1599.43,1917.1 C1602.05,1918.31 1605.13,1918.92 1608.67,1918.92 M1657.8,1927.67 L1657.8,1856.76 L1664.94,1856.76 C1666.29,1856.76 1667.23,1857.01 1667.74,1857.53 C1668.25,1858.04 1668.6,1858.93 1668.79,1860.19 L1669.63,1871.25 C1672.06,1866.3 1675.06,1862.44 1678.63,1859.66 C1682.2,1856.88 1686.38,1855.5 1691.19,1855.5 C1693.15,1855.5 1694.92,1855.72 1696.51,1856.16 C1698.1,1856.6 1699.57,1857.22 1700.92,1858.02 L1699.31,1867.33 C1698.98,1868.49 1698.26,1869.08 1697.14,1869.08 C1696.49,1869.08 1695.48,1868.85 1694.13,1868.41 C1692.78,1867.97 1690.89,1867.75 1688.46,1867.75 C1684.12,1867.75 1680.49,1869.01 1677.58,1871.53 C1674.66,1874.05 1672.22,1877.71 1670.26,1882.52 L1670.26,1927.67 L1657.8,1927.67 M1741.22,1927.67 L1741.22,1856.76 L1748.64,1856.76 C1750.42,1856.76 1751.54,1857.62 1752,1859.35 L1752.91,1866.63 C1755.53,1863.41 1758.45,1860.77 1761.7,1858.72 C1764.94,1856.66 1768.71,1855.64 1773,1855.64 C1777.81,1855.64 1781.69,1856.97 1784.66,1859.63 C1787.62,1862.29 1789.76,1865.88 1791.06,1870.41 C1792.04,1867.84 1793.34,1865.62 1794.95,1863.76 C1796.56,1861.89 1798.37,1860.35 1800.37,1859.14 C1802.38,1857.92 1804.51,1857.04 1806.78,1856.48 C1809.04,1855.92 1811.34,1855.64 1813.67,1855.64 C1817.41,1855.64 1820.73,1856.23 1823.65,1857.42 C1826.56,1858.61 1829.04,1860.35 1831.07,1862.64 C1833.1,1864.92 1834.65,1867.73 1835.72,1871.07 C1836.8,1874.41 1837.33,1878.22 1837.33,1882.52 L1837.33,1927.67 L1824.87,1927.67 L1824.87,1882.52 C1824.87,1876.96 1823.66,1872.75 1821.23,1869.88 C1818.81,1867.01 1815.28,1865.58 1810.66,1865.58 C1808.61,1865.58 1806.66,1865.94 1804.82,1866.66 C1802.97,1867.38 1801.35,1868.45 1799.95,1869.85 C1798.55,1871.25 1797.44,1873.01 1796.63,1875.13 C1795.81,1877.25 1795.4,1879.72 1795.4,1882.52 L1795.4,1927.67 L1782.94,1927.67 L1782.94,1882.52 C1782.94,1876.82 1781.8,1872.58 1779.51,1869.78 C1777.23,1866.98 1773.89,1865.58 1769.5,1865.58 C1766.42,1865.58 1763.56,1866.4 1760.93,1868.06 C1758.29,1869.72 1755.88,1871.97 1753.68,1874.82 L1753.68,1927.67 L1741.22,1927.67 M1884.86,1855.64 C1890.04,1855.64 1894.72,1856.5 1898.9,1858.23 C1903.07,1859.95 1906.62,1862.4 1909.54,1865.58 C1912.45,1868.75 1914.69,1872.59 1916.26,1877.09 C1917.82,1881.59 1918.6,1886.62 1918.6,1892.18 C1918.6,1897.78 1917.82,1902.82 1916.26,1907.3 C1914.69,1911.78 1912.45,1915.6 1909.54,1918.78 C1906.62,1921.95 1903.07,1924.39 1898.9,1926.09 C1894.72,1927.79 1890.04,1928.65 1884.86,1928.65 C1879.68,1928.65 1875,1927.79 1870.83,1926.09 C1866.65,1924.39 1863.09,1921.95 1860.15,1918.78 C1857.21,1915.6 1854.95,1911.78 1853.36,1907.3 C1851.77,1902.82 1850.98,1897.78 1850.98,1892.18 C1850.98,1886.62 1851.77,1881.59 1853.36,1877.09 C1854.95,1872.59 1857.21,1868.75 1860.15,1865.58 C1863.09,1862.4 1866.65,1859.95 1870.83,1858.23 C1875,1856.5 1879.68,1855.64 1884.86,1855.64 M1884.86,1918.92 C1891.86,1918.92 1897.09,1916.57 1900.54,1911.88 C1903.99,1907.19 1905.72,1900.65 1905.72,1892.25 C1905.72,1883.8 1903.99,1877.22 1900.54,1872.51 C1897.09,1867.79 1891.86,1865.44 1884.86,1865.44 C1881.31,1865.44 1878.23,1866.04 1875.62,1867.26 C1873.01,1868.47 1870.83,1870.22 1869.08,1872.51 C1867.33,1874.79 1866.02,1877.6 1865.16,1880.94 C1864.29,1884.28 1863.86,1888.05 1863.86,1892.25 C1863.86,1896.45 1864.29,1900.2 1865.16,1903.52 C1866.02,1906.83 1867.33,1909.62 1869.08,1911.88 C1870.83,1914.14 1873.01,1915.88 1875.62,1917.1 C1878.23,1918.31 1881.31,1918.92 1884.86,1918.92 M1933.99,1927.67 L1933.99,1856.76 L1941.13,1856.76 C1942.48,1856.76 1943.42,1857.01 1943.93,1857.53 C1944.44,1858.04 1944.79,1858.93 1944.98,1860.19 L1945.82,1871.25 C1948.25,1866.3 1951.24,1862.44 1954.81,1859.66 C1958.38,1856.88 1962.57,1855.5 1967.38,1855.5 C1969.34,1855.5 1971.11,1855.72 1972.7,1856.16 C1974.29,1856.6 1975.76,1857.22 1977.11,1858.02 L1975.5,1867.33 C1975.17,1868.49 1974.45,1869.08 1973.33,1869.08 C1972.68,1869.08 1971.67,1868.85 1970.32,1868.41 C1968.97,1867.97 1967.08,1867.75 1964.65,1867.75 C1960.31,1867.75 1956.68,1869.01 1953.76,1871.53 C1950.85,1874.05 1948.41,1877.71 1946.45,1882.52 L1946.45,1927.67 L1933.99,1927.67 M2018.47,1855.64 C2022.71,1855.64 2026.63,1856.35 2030.23,1857.77 C2033.82,1859.19 2036.92,1861.25 2039.54,1863.93 C2042.15,1866.61 2044.19,1869.93 2045.66,1873.87 C2047.13,1877.81 2047.86,1882.31 2047.86,1887.35 C2047.86,1889.31 2047.66,1890.61 2047.24,1891.27 C2046.82,1891.92 2046.02,1892.25 2044.85,1892.25 L1997.68,1892.25 C1997.77,1896.73 1998.38,1900.62 1999.5,1903.94 C2000.61,1907.25 2002.16,1910.01 2004.11,1912.23 C2006.08,1914.45 2008.41,1916.1 2011.11,1917.2 C2013.82,1918.3 2016.85,1918.85 2020.22,1918.85 C2023.34,1918.85 2026.04,1918.48 2028.3,1917.76 C2030.56,1917.04 2032.51,1916.26 2034.15,1915.42 C2035.78,1914.58 2037.14,1913.79 2038.24,1913.07 C2039.34,1912.35 2040.28,1911.99 2041.08,1911.99 C2042.1,1911.99 2042.9,1912.38 2043.46,1913.18 L2046.96,1917.73 C2045.42,1919.59 2043.57,1921.21 2041.43,1922.59 C2039.28,1923.97 2036.98,1925.1 2034.53,1925.99 C2032.08,1926.87 2029.55,1927.54 2026.94,1927.98 C2024.32,1928.42 2021.73,1928.65 2019.17,1928.65 C2014.27,1928.65 2009.75,1927.82 2005.62,1926.16 C2001.49,1924.5 1997.92,1922.08 1994.91,1918.88 C1991.9,1915.68 1989.56,1911.73 1987.88,1907.02 C1986.2,1902.3 1985.35,1896.89 1985.35,1890.78 C1985.35,1885.83 1986.11,1881.21 1987.63,1876.92 C1989.15,1872.62 1991.33,1868.9 1994.18,1865.75 C1997.02,1862.6 2000.5,1860.13 2004.6,1858.33 C2008.71,1856.53 2013.33,1855.64 2018.47,1855.64 M2018.75,1864.81 C2012.73,1864.81 2007.99,1866.54 2004.54,1870.02 C2001.08,1873.5 1998.94,1878.32 1998.1,1884.48 L2036.67,1884.48 C2036.67,1881.58 2036.27,1878.93 2035.48,1876.53 C2034.68,1874.13 2033.52,1872.05 2031.98,1870.3 C2030.44,1868.55 2028.56,1867.2 2026.34,1866.24 C2024.12,1865.28 2021.59,1864.81 2018.75,1864.81 M2104.63,1856.76 L2104.63,1927.67 L2092.17,1927.67 L2092.17,1856.76 L2104.63,1856.76 M2107.43,1834.5 C2107.43,1835.71 2107.19,1836.84 2106.7,1837.89 C2106.21,1838.94 2105.55,1839.87 2104.74,1840.69 C2103.92,1841.51 2102.97,1842.15 2101.9,1842.62 C2100.83,1843.08 2099.68,1843.32 2098.47,1843.32 C2097.26,1843.32 2096.12,1843.08 2095.07,1842.62 C2094.03,1842.15 2093.09,1841.51 2092.28,1840.69 C2091.46,1839.87 2090.82,1838.94 2090.35,1837.89 C2089.88,1836.84 2089.65,1835.71 2089.65,1834.5 C2089.65,1833.28 2089.88,1832.13 2090.35,1831.03 C2090.82,1829.93 2091.46,1828.98 2092.28,1828.16 C2093.09,1827.34 2094.03,1826.7 2095.07,1826.24 C2096.12,1825.77 2097.26,1825.54 2098.47,1825.54 C2099.68,1825.54 2100.83,1825.77 2101.9,1826.24 C2102.97,1826.7 2103.92,1827.34 2104.74,1828.16 C2105.55,1828.98 2106.21,1829.93 2106.7,1831.03 C2107.19,1832.13 2107.43,1833.28 2107.43,1834.5 M2126.6,1927.67 L2126.6,1856.76 L2134.02,1856.76 C2135.79,1856.76 2136.91,1857.62 2137.38,1859.35 L2138.36,1867.05 C2141.44,1863.64 2144.88,1860.89 2148.68,1858.79 C2152.49,1856.69 2156.88,1855.64 2161.88,1855.64 C2165.75,1855.64 2169.17,1856.28 2172.13,1857.56 C2175.1,1858.84 2177.57,1860.66 2179.55,1863.02 C2181.54,1865.38 2183.04,1868.21 2184.07,1871.53 C2185.09,1874.84 2185.61,1878.5 2185.61,1882.52 L2185.61,1927.67 L2173.15,1927.67 L2173.15,1882.52 C2173.15,1877.15 2171.92,1872.98 2169.47,1870.02 C2167.02,1867.06 2163.28,1865.58 2158.24,1865.58 C2154.55,1865.58 2151.11,1866.46 2147.91,1868.24 C2144.72,1870.01 2141.76,1872.41 2139.06,1875.45 L2139.06,1927.67 L2126.6,1927.67 M2207.23,1927.67 L2207.23,1867.4 L2199.39,1866.49 C2198.41,1866.25 2197.6,1865.89 2196.97,1865.4 C2196.34,1864.91 2196.03,1864.2 2196.03,1863.27 L2196.03,1858.16 L2207.23,1858.16 L2207.23,1851.3 C2207.23,1847.24 2207.8,1843.63 2208.94,1840.48 C2210.08,1837.33 2211.72,1834.67 2213.84,1832.5 C2215.96,1830.33 2218.52,1828.69 2221.51,1827.57 C2224.49,1826.45 2227.85,1825.89 2231.59,1825.89 C2234.76,1825.89 2237.7,1826.35 2240.41,1827.29 L2240.13,1833.52 C2240.08,1834.45 2239.68,1835.01 2238.94,1835.2 C2238.19,1835.38 2237.14,1835.48 2235.79,1835.48 L2233.62,1835.48 C2231.47,1835.48 2229.52,1835.76 2227.77,1836.32 C2226.02,1836.88 2224.52,1837.79 2223.26,1839.05 C2222,1840.31 2221.03,1841.96 2220.35,1844.02 C2219.67,1846.07 2219.34,1848.61 2219.34,1851.65 L2219.34,1858.16 L2239.85,1858.16 L2239.85,1867.19 L2219.76,1867.19 L2219.76,1927.67 L2207.23,1927.67 M2280.3,1855.64 C2285.48,1855.64 2290.16,1856.5 2294.33,1858.23 C2298.51,1859.95 2302.06,1862.4 2304.97,1865.58 C2307.89,1868.75 2310.13,1872.59 2311.69,1877.09 C2313.26,1881.59 2314.04,1886.62 2314.04,1892.18 C2314.04,1897.78 2313.26,1902.82 2311.69,1907.3 C2310.13,1911.78 2307.89,1915.6 2304.97,1918.78 C2302.06,1921.95 2298.51,1924.39 2294.33,1926.09 C2290.16,1927.79 2285.48,1928.65 2280.3,1928.65 C2275.12,1928.65 2270.44,1927.79 2266.26,1926.09 C2262.09,1924.39 2258.53,1921.95 2255.59,1918.78 C2252.65,1915.6 2250.38,1911.78 2248.8,1907.3 C2247.21,1902.82 2246.42,1897.78 2246.42,1892.18 C2246.42,1886.62 2247.21,1881.59 2248.8,1877.09 C2250.38,1872.59 2252.65,1868.75 2255.59,1865.58 C2258.53,1862.4 2262.09,1859.95 2266.26,1858.23 C2270.44,1856.5 2275.12,1855.64 2280.3,1855.64 M2280.3,1918.92 C2287.3,1918.92 2292.52,1916.57 2295.98,1911.88 C2299.43,1907.19 2301.16,1900.65 2301.16,1892.25 C2301.16,1883.8 2299.43,1877.22 2295.98,1872.51 C2292.52,1867.79 2287.3,1865.44 2280.3,1865.44 C2276.75,1865.44 2273.67,1866.04 2271.06,1867.26 C2268.44,1868.47 2266.26,1870.22 2264.51,1872.51 C2262.76,1874.79 2261.46,1877.6 2260.59,1880.94 C2259.73,1884.28 2259.3,1888.05 2259.3,1892.25 C2259.3,1896.45 2259.73,1900.2 2260.59,1903.52 C2261.46,1906.83 2262.76,1909.62 2264.51,1911.88 C2266.26,1914.14 2268.44,1915.88 2271.06,1917.1 C2273.67,1918.31 2276.75,1918.92 2280.3,1918.92 Z" style="stroke:none;fill-rule:nonzero;fill:#ffffff;fill-opacity:1;"/>
        </g>
        <g id="Shape7">
            <desc shapeID="7" type="0" basicInfo-basicType="0" basicInfo-roundedRectRadius="12" basicInfo-polygonSides="6" basicInfo-starPoints="5" bounding="rect(-768,-768,1536,1536)" text="" font-familyName="" font-pixelSize="20" font-bold="0" font-underline="0" font-alignment="1" strokeStyle="0" markerStart="0" markerEnd="0" shadowEnabled="0" shadowOffsetX="0" shadowOffsetY="2" shadowBlur="4" shadowOpacity="160" blurEnabled="0" blurRadius="4" transform="matrix(0.115407,0,0,0.119689,2439.58,1888.12)" pers-center="0,0" pers-size="0,0" pers-start="0,0" pers-end="0,0" locked="0" mesh="" flag=""/>
            <path id="shapePath7" d="M2469.13,1945.57 L2469.13,1937.91 C2469.13,1936.79 2468.78,1935.87 2468.09,1935.15 C2467.4,1934.43 2466.51,1934.08 2465.44,1934.08 L2454.36,1934.08 L2454.36,1876.63 C2454.36,1875.51 2454.01,1874.59 2453.32,1873.87 C2452.62,1873.15 2451.74,1872.8 2450.66,1872.8 L2413.73,1872.8 C2412.66,1872.8 2411.77,1873.15 2411.08,1873.87 C2410.39,1874.59 2410.04,1875.51 2410.04,1876.63 L2410.04,1884.29 C2410.04,1885.4 2410.39,1886.32 2411.08,1887.04 C2411.77,1887.76 2412.66,1888.12 2413.73,1888.12 L2424.81,1888.12 L2424.81,1934.08 L2413.73,1934.08 C2412.66,1934.08 2411.77,1934.43 2411.08,1935.15 C2410.39,1935.87 2410.04,1936.79 2410.04,1937.91 L2410.04,1945.57 C2410.04,1946.68 2410.39,1947.6 2411.08,1948.32 C2411.77,1949.04 2412.66,1949.4 2413.73,1949.4 L2465.44,1949.4 C2466.51,1949.4 2467.4,1949.04 2468.09,1948.32 C2468.78,1947.6 2469.13,1946.68 2469.13,1945.57 M2454.36,1853.65 L2454.36,1830.66 C2454.36,1829.55 2454.01,1828.63 2453.32,1827.91 C2452.62,1827.19 2451.74,1826.83 2450.66,1826.83 L2428.5,1826.83 C2427.43,1826.83 2426.54,1827.19 2425.85,1827.91 C2425.16,1828.63 2424.81,1829.55 2424.81,1830.66 L2424.81,1853.65 C2424.81,1854.76 2425.16,1855.68 2425.85,1856.4 C2426.54,1857.12 2427.43,1857.48 2428.5,1857.48 L2450.66,1857.48 C2451.74,1857.48 2452.62,1857.12 2453.32,1856.4 C2454.01,1855.68 2454.36,1854.76 2454.36,1853.65 M2528.22,1888.12 C2528.22,1904.79 2524.25,1920.17 2516.33,1934.26 C2508.41,1948.34 2497.65,1959.49 2484.07,1967.71 C2470.49,1975.93 2455.66,1980.04 2439.58,1980.04 C2423.5,1980.04 2408.67,1975.93 2395.09,1967.71 C2381.51,1959.49 2370.76,1948.34 2362.84,1934.26 C2354.91,1920.17 2350.95,1904.79 2350.95,1888.12 C2350.95,1871.44 2354.91,1856.06 2362.84,1841.98 C2370.76,1827.89 2381.51,1816.74 2395.09,1808.52 C2408.67,1800.3 2423.5,1796.19 2439.58,1796.19 C2455.66,1796.19 2470.49,1800.3 2484.07,1808.52 C2497.65,1816.74 2508.41,1827.89 2516.33,1841.98 C2524.25,1856.06 2528.22,1871.44 2528.22,1888.12 Z" style="stroke:none;fill-rule:nonzero;fill:#ffffff;fill-opacity:1;"/>
        </g>
    </g>
    <g id="Layer2" opacity="1">
        <g id="Shape8">
            <desc shapeID="8" type="0" basicInfo-basicType="0" basicInfo-roundedRectRadius="12" basicInfo-polygonSides="6" basicInfo-starPoints="5" bounding="rect(-32.8051,-37.516,65.6102,75.032)" text="" font-familyName="" font-pixelSize="20" font-bold="0" font-underline="0" font-alignment="1" strokeStyle="0" markerStart="0" markerEnd="0" shadowEnabled="0" shadowOffsetX="0" shadowOffsetY="2" shadowBlur="4" shadowOpacity="160" blurEnabled="0" blurRadius="4" transform="matrix(5.53826,0,0,6.11256,468.005,1221.74)" pers-center="0,0" pers-size="0,0" pers-start="0,0" pers-end="0,0" locked="0" mesh="" flag=""/>
            <path id="shapePath8" d="M606.767,1138.53 C602.186,1124.62 589.016,1115.26 574.002,1115.26 C569.705,1115.26 565.556,1116.05 561.669,1117.61 C558.063,1119.06 553.677,1121.94 549.529,1125.53 C543.298,1110.36 529.458,1100.38 514.211,1100.38 C509.692,1100.38 505.234,1101.25 500.953,1102.97 C492.241,1106.47 485.335,1113.13 480.921,1121.38 C473.682,1111.93 462.888,1106.14 451.274,1106.14 C446.761,1106.14 442.297,1107.01 438.016,1108.72 C428.905,1112.39 420.554,1119.23 414.977,1128.21 L380.739,1024.41 C374.137,1004.38 360.846,992.42 345.183,992.42 C341.041,992.42 336.804,993.276 332.601,994.969 C312.203,1003.16 303.381,1027.22 311.616,1052.21 L392.126,1294.63 L350.705,1271.95 C344.596,1268.81 338.128,1267.22 331.482,1267.22 C314.064,1267.22 298.031,1278.55 290.621,1296.09 C285.487,1308.24 284.933,1321.86 289.059,1334.44 C293.185,1347.05 301.52,1357.12 312.115,1362.56 C312.491,1362.78 350.661,1385.29 403.496,1412.48 L412.08,1416.91 C445.952,1434.47 477.947,1451.06 515.031,1451.06 L515.036,1451.06 C532.692,1451.06 550.37,1447.4 569.079,1439.89 C634.801,1413.49 644.787,1368.25 649.383,1324.17 C653.803,1281.78 608.694,1144.35 606.767,1138.53 M632.874,1322.08 C628.549,1363.57 620.33,1399.78 563.396,1422.65 C546.538,1429.42 530.721,1432.71 515.036,1432.71 L515.031,1432.71 C481.657,1432.71 452.687,1417.7 419.147,1400.31 L410.518,1395.85 C358.132,1368.89 320.333,1346.6 319.547,1346.16 C312.58,1342.57 307.302,1336.19 304.682,1328.2 C302.063,1320.2 302.417,1311.55 305.679,1303.83 C310.442,1292.55 320.333,1285.55 331.482,1285.55 C335.685,1285.55 339.789,1286.56 343.494,1288.48 L403.402,1321.27 C406.448,1322.94 410.103,1322.4 412.639,1319.88 C415.17,1317.38 416.068,1313.42 414.894,1309.9 L327.223,1045.92 C323.296,1033.99 323.833,1018.01 338.283,1012.2 C340.67,1011.24 342.996,1010.76 345.189,1010.76 C353.568,1010.76 361.017,1018.21 365.138,1030.69 L418.178,1191.51 C419.751,1196.27 424.53,1198.73 428.822,1196.99 C433.137,1195.26 435.363,1189.99 433.785,1185.24 L426.208,1162.26 C419.956,1143.3 433.247,1130.16 443.704,1125.96 C446.151,1124.98 448.699,1124.48 451.274,1124.48 C460.556,1124.48 468.93,1130.94 472.104,1140.57 L482.427,1171.9 L482.521,1172.17 C484.094,1176.93 488.874,1179.38 493.166,1177.64 C497.475,1175.91 499.701,1170.65 498.128,1165.89 L493.277,1151.17 C489.333,1138.63 495.32,1124.74 506.629,1120.2 C509.077,1119.21 511.625,1118.71 514.206,1118.71 C523.482,1118.71 531.851,1125.19 535.029,1134.81 L547.169,1171.63 L547.33,1172.14 C548.897,1176.9 553.649,1179.36 557.98,1177.62 C562.289,1175.89 564.515,1170.62 562.942,1165.86 L555.709,1143.94 C558.274,1141 563.668,1136.31 567.34,1134.84 C569.394,1134.01 571.632,1133.59 573.991,1133.59 C581.922,1133.59 588.972,1138.19 591.149,1144.79 C603.881,1183.38 636.175,1290.42 632.874,1322.08 Z" style="stroke:none;fill-rule:nonzero;fill:#ffffff;fill-opacity:1;"/>
        </g>
        <g id="Shape9">
            <desc shapeID="9" type="0" basicInfo-basicType="0" basicInfo-roundedRectRadius="12" basicInfo-polygonSides="6" basicInfo-starPoints="5" bounding="rect(-32.8095,-7.32274,65.619,14.6455)" text="" font-familyName="" font-pixelSize="20" font-bold="0" font-underline="0" font-alignment="1" strokeStyle="0" markerStart="0" markerEnd="0" shadowEnabled="0" shadowOffsetX="0" shadowOffsetY="2" shadowBlur="4" shadowOpacity="160" blurEnabled="0" blurRadius="4" transform="matrix(5.53826,0,0,6.11256,334.129,943.59)" pers-center="0,0" pers-size="0,0" pers-start="0,0" pers-end="0,0" locked="0" mesh="" flag=""/>
            <path id="shapePath9" d="M205.758,956.699 C303.021,931.992 404.687,935.647 500.642,967.646 C506.319,969.535 513.702,965.757 515.441,959.957 C517.174,954.15 513.004,946.216 507.05,944.241 C407.389,911.007 301.802,907.217 200.79,932.872 C198.924,923.935 197.063,914.999 195.202,906.062 C194.443,902.456 193.048,899.369 189.204,898.91 C185.366,898.458 183.018,899.907 180.902,903.201 C171.044,918.556 161.923,934.168 153.554,949.956 C151.106,954.59 152.773,960.097 157.132,962.31 C172.019,969.89 186.341,978.105 200.059,986.889 C203,988.771 205.32,988.948 208.106,986.76 C210.886,984.572 210.853,981.161 210.1,977.549 C208.66,970.592 207.209,963.649 205.758,956.699 Z" style="stroke:none;fill-rule:nonzero;fill:#ffffff;fill-opacity:1;"/>
        </g>
        <g id="Shape10">
            <desc shapeID="10" type="0" basicInfo-basicType="0" basicInfo-roundedRectRadius="12" basicInfo-polygonSides="6" basicInfo-starPoints="5" bounding="rect(-32.6843,-42.508,65.3685,85.016)" text="" font-familyName="" font-pixelSize="20" font-bold="0" font-underline="0" font-alignment="1" strokeStyle="0" markerStart="0" markerEnd="0" shadowEnabled="0" shadowOffsetX="0" shadowOffsetY="2" shadowBlur="4" shadowOpacity="160" blurEnabled="0" blurRadius="4" transform="matrix(5.75622,0,0,5.56222,395.854,520.001)" pers-center="0,0" pers-size="0,0" pers-start="0,0" pers-end="0,0" locked="0" mesh="" flag=""/>
            <path id="shapePath10" d="M558.95,519.3 C554.074,517.576 548.162,517.098 544.49,516.975 C550.125,497.585 539.373,476.9 519.462,469.886 C510.666,466.799 500.887,466.849 492.402,469.73 C492.385,464.162 491.113,458.611 488.609,453.416 C484.055,443.993 475.985,436.846 465.877,433.286 C456.213,429.888 444.953,429.521 435.732,432.001 L471.311,337.533 C475.329,326.87 475.887,316.502 472.917,307.547 C469.515,297.295 461.871,289.82 450.802,285.932 C446.341,284.358 441.811,283.562 437.344,283.562 C420.645,283.562 406.128,294.559 399.445,312.28 L316.803,533.228 L297.548,490.677 C289.852,474.725 273.182,464.418 255.079,464.418 C248.165,464.418 241.442,465.87 235.099,468.729 C223.667,473.879 214.975,483.012 210.641,494.448 C206.295,505.912 206.836,518.316 211.976,528.94 C212.143,529.34 228.911,569.677 254.52,622.747 L258.676,631.418 C282.875,681.934 303.782,724.574 369.766,747.78 C387.869,754.149 404.879,756.44 420.311,756.44 C420.311,756.44 420.317,756.44 420.323,756.44 C458.567,756.44 482.501,738.402 503.736,718.962 C532.92,692.269 580.19,567.77 582.188,562.469 C585.33,554.148 584.335,544.748 579.459,536.243 C574.917,528.289 567.44,522.282 558.95,519.3 M565.972,557.274 C552.744,592.382 513.66,687.852 491.872,707.787 C472.382,725.62 452.241,741.634 420.323,741.628 C406.899,741.628 391.881,738.736 375.672,733.04 C316.44,712.209 297.865,673.435 274.345,624.354 L270.171,615.672 C244.781,563.047 228.174,523.111 227.823,522.298 C224.444,515.296 224.104,507.442 226.856,500.177 C229.613,492.919 235.133,487.117 242.398,483.841 C246.444,482.017 250.704,481.094 255.079,481.094 C266.672,481.094 276.952,487.468 281.816,497.541 L309.659,559.076 C311.075,562.202 314.178,564.232 317.85,564.071 C321.385,563.954 324.487,561.779 325.69,558.564 L415.677,317.959 C420.881,304.142 432.589,297.273 444.89,301.601 C450.836,303.692 454.733,307.402 456.466,312.63 C458.233,317.948 457.744,324.762 455.084,331.815 L399.963,478.168 C398.328,482.501 400.642,487.284 405.12,488.864 C409.57,490.427 414.555,488.208 416.184,483.88 L424.058,462.972 C429.475,448.593 443.019,447.042 448.591,447.042 C452.46,447.042 456.391,447.703 459.971,448.966 C465.751,450.996 470.361,455.085 472.963,460.469 C475.559,465.853 475.836,471.894 473.735,477.484 L462.907,506.229 C461.278,510.562 463.586,515.346 468.065,516.925 C472.52,518.494 477.493,516.269 479.128,511.942 L484.055,498.865 C487.348,490.11 496.046,484.219 505.699,484.219 C508.375,484.219 511.023,484.676 513.556,485.565 C525.489,489.771 531.665,502.564 527.325,514.089 L514.529,548.063 C512.9,552.385 515.208,557.179 519.686,558.753 C524.142,560.322 529.115,558.102 530.75,553.77 L538.268,533.823 C539.258,533.712 540.599,533.629 542.291,533.629 C546.43,533.629 550.747,534.168 553.038,534.975 C557.603,536.582 561.833,540.17 564.355,544.57 C565.8,547.089 567.924,552.09 565.972,557.274 Z" style="stroke:none;fill-rule:nonzero;fill:#ffffff;fill-opacity:1;"/>
        </g>
        <g id="Shape11">
            <desc shapeID="11" type="0" basicInfo-basicType="0" basicInfo-roundedRectRadius="12" basicInfo-polygonSides="6" basicInfo-starPoints="5" bounding="rect(-32.8093,-7.32279,65.6187,14.6456)" text="" font-familyName="" font-pixelSize="20" font-bold="0" font-underline="0" font-alignment="1" strokeStyle="0" markerStart="0" markerEnd="0" shadowEnabled="0" shadowOffsetX="0" shadowOffsetY="2" shadowBlur="4" shadowOpacity="160" blurEnabled="0" blurRadius="4" transform="matrix(5.75622,0,0,5.56222,438.473,244.943)" pers-center="0,0" pers-size="0,0" pers-start="0,0" pers-end="0,0" locked="0" mesh="" flag=""/>
            <path id="shapePath11" d="M626.154,250.734 C617.451,236.367 607.976,222.161 597.73,208.188 C595.531,205.19 593.091,203.878 589.102,204.284 C585.107,204.695 583.656,207.51 582.868,210.792 C580.934,218.923 579,227.055 577.06,235.187 C472.072,211.843 362.33,215.291 258.746,245.533 C252.57,247.33 248.224,254.55 250.026,259.834 C251.827,265.112 259.5,268.544 265.406,266.831 C365.139,237.718 470.806,234.392 571.896,256.869 C570.388,263.193 568.886,269.517 567.378,275.842 C566.595,279.135 566.555,282.233 569.45,284.224 C572.345,286.215 574.757,286.06 577.814,284.341 C592.072,276.348 606.952,268.872 622.43,261.975 C626.96,259.956 628.699,254.95 626.154,250.734 Z" style="stroke:none;fill-rule:nonzero;fill:#ffffff;fill-opacity:1;"/>
        </g>
        <g id="Shape12">
            <desc shapeID="12" type="0" basicInfo-basicType="0" basicInfo-roundedRectRadius="12" basicInfo-polygonSides="6" basicInfo-starPoints="5" bounding="rect(-32.4369,-45,64.8737,90)" text="" font-familyName="" font-pixelSize="20" font-bold="0" font-underline="0" font-alignment="1" strokeStyle="0" markerStart="0" markerEnd="0" shadowEnabled="0" shadowOffsetX="0" shadowOffsetY="2" shadowBlur="4" shadowOpacity="160" blurEnabled="0" blurRadius="4" transform="matrix(5.44198,0,0,5.70742,434.819,1862.17)" pers-center="0,0" pers-size="0,0" pers-start="0,0" pers-end="0,0" locked="0" mesh="" flag=""/>
            <path id="shapePath12" d="M576.054,1833.63 C573.839,1833.63 568.218,1834.43 562.438,1836.31 C560.964,1815.69 544.485,1799.39 524.453,1799.39 C515.311,1799.39 506.914,1802.78 500.345,1808.43 C494.98,1793.17 480.972,1782.26 464.591,1782.26 C455.063,1782.26 445.262,1785.32 437.382,1791.24 L437.382,1749.75 C459.955,1736.59 475.285,1711.34 475.285,1682.38 C475.285,1639.9 442.328,1605.33 401.818,1605.33 C361.308,1605.33 328.351,1639.9 328.351,1682.38 C328.351,1710.89 343.219,1735.77 365.221,1749.09 L365.607,1929.18 L334.261,1894.68 C325.826,1885.83 314.67,1880.96 302.85,1880.96 C291.03,1880.96 279.869,1885.83 271.439,1894.68 C254.003,1912.96 253.965,1942.68 271.047,1960.57 C271.33,1960.91 299.721,1994.11 340.226,2036.59 L346.816,2043.52 C385.226,2084.02 418.389,2119 484.77,2119 C553.497,2119 576.49,2082.83 594.154,2045.77 C611.144,2010.14 611.34,1873.66 611.34,1867.87 C611.335,1849.63 594.851,1833.63 576.054,1833.63 M344.677,1682.38 C344.677,1649.34 370.309,1622.46 401.818,1622.46 C433.327,1622.46 458.959,1649.34 458.959,1682.38 C458.959,1701.33 450.508,1718.21 437.382,1729.21 L437.382,1688.09 C437.382,1662.49 423.118,1645.29 401.894,1645.29 C380.567,1645.29 365.09,1663.29 365.09,1688.11 L365.177,1728.31 C352.661,1717.31 344.677,1700.81 344.677,1682.38 M381.416,1688.27 C381.416,1676.42 386.777,1662.49 401.894,1662.49 C419.679,1662.49 421.056,1682.06 421.056,1688.08 L421.056,1847.89 C421.056,1852.62 424.713,1856.45 429.219,1856.45 C433.725,1856.45 437.382,1852.62 437.382,1847.89 L437.382,1825.06 C437.382,1806.22 453.653,1799.38 464.591,1799.38 C476.597,1799.38 486.359,1809.62 486.359,1822.21 L486.359,1853.6 C486.359,1858.33 490.016,1862.16 494.522,1862.16 C499.028,1862.16 502.685,1858.33 502.685,1853.6 L502.685,1839.33 C502.685,1826.74 512.448,1816.5 524.453,1816.5 C536.458,1816.5 546.221,1826.74 546.221,1839.33 L546.221,1876.43 C546.221,1881.16 549.878,1884.99 554.384,1884.99 C558.89,1884.99 562.547,1881.16 562.547,1876.43 L562.547,1854.63 C565.812,1852.96 572.212,1850.74 576.054,1850.74 C585.795,1850.74 595.003,1859.06 595.003,1867.86 C595.003,1906.19 592.217,2011.51 579.537,2038.11 C562.906,2072.99 544.3,2101.87 484.759,2101.87 C425.17,2101.87 395.696,2070.8 358.38,2031.44 L351.757,2024.47 C311.59,1982.35 283.477,1949.47 282.889,1948.81 C277.55,1943.2 274.612,1935.74 274.628,1927.81 C274.65,1919.86 277.61,1912.4 282.971,1906.78 C288.32,1901.16 295.378,1898.07 302.839,1898.07 C310.3,1898.07 317.353,1901.16 322.567,1906.63 L367.898,1956.52 C370.211,1959.07 373.77,1959.86 376.85,1958.56 C379.952,1957.25 381.977,1954.1 381.971,1950.59 L381.416,1688.27 Z" style="stroke:none;fill-rule:nonzero;fill:#ffffff;fill-opacity:1;"/>
        </g>
        <g id="Shape13">
            <desc shapeID="13" type="2" basicInfo-basicType="0" basicInfo-roundedRectRadius="12" basicInfo-polygonSides="6" basicInfo-starPoints="5" bounding="rect(-78.8219,-72.664,157.644,145.328)" text="2 x" font-familyName="Lato" font-pixelSize="80" font-bold="0" font-underline="0" font-alignment="1" strokeStyle="0" markerStart="0" markerEnd="0" shadowEnabled="0" shadowOffsetX="0" shadowOffsetY="2" shadowBlur="4" shadowOpacity="160" blurEnabled="0" blurRadius="4" transform="matrix(1,0,0,1,254.619,1663)" pers-center="0,0" pers-size="0,0" pers-start="0,0" pers-end="0,0" locked="0" mesh="" flag=""/>
            <path id="shapePath13" d="M227.596,1636.34 C230.023,1636.34 232.29,1636.7 234.396,1637.42 C236.503,1638.14 238.323,1639.18 239.856,1640.56 C241.39,1641.93 242.596,1643.6 243.476,1645.58 C244.356,1647.55 244.796,1649.79 244.796,1652.3 C244.796,1654.43 244.476,1656.4 243.836,1658.22 C243.196,1660.03 242.33,1661.77 241.236,1663.44 C240.143,1665.1 238.883,1666.72 237.456,1668.28 C236.03,1669.84 234.516,1671.43 232.916,1673.06 L217.836,1688.5 C218.903,1688.2 219.983,1687.97 221.076,1687.8 C222.17,1687.62 223.223,1687.54 224.236,1687.54 L243.436,1687.54 C244.21,1687.54 244.823,1687.76 245.276,1688.22 C245.73,1688.67 245.956,1689.26 245.956,1689.98 L245.956,1694.3 L207.716,1694.3 L207.716,1691.86 C207.716,1691.35 207.816,1690.83 208.016,1690.3 C208.216,1689.76 208.543,1689.27 208.996,1688.82 L227.356,1670.38 C228.876,1668.83 230.263,1667.34 231.516,1665.92 C232.77,1664.49 233.843,1663.06 234.736,1661.62 C235.63,1660.18 236.316,1658.72 236.796,1657.24 C237.276,1655.76 237.516,1654.18 237.516,1652.5 C237.516,1650.82 237.25,1649.34 236.716,1648.08 C236.183,1646.81 235.45,1645.76 234.516,1644.94 C233.583,1644.11 232.49,1643.49 231.236,1643.08 C229.983,1642.66 228.636,1642.46 227.196,1642.46 C225.756,1642.46 224.423,1642.67 223.196,1643.1 C221.97,1643.52 220.883,1644.12 219.936,1644.88 C218.99,1645.64 218.19,1646.54 217.536,1647.58 C216.883,1648.62 216.423,1649.76 216.156,1651.02 C215.943,1651.79 215.623,1652.35 215.196,1652.7 C214.77,1653.04 214.21,1653.22 213.516,1653.22 C213.383,1653.22 213.243,1653.21 213.096,1653.2 C212.95,1653.18 212.783,1653.16 212.596,1653.14 L208.876,1652.5 C209.25,1649.88 209.97,1647.57 211.036,1645.56 C212.103,1643.54 213.456,1641.86 215.096,1640.5 C216.736,1639.14 218.616,1638.1 220.736,1637.4 C222.856,1636.69 225.143,1636.34 227.596,1636.34 M280.704,1673.54 L267.064,1653.78 L273.904,1653.78 C274.491,1653.78 274.918,1653.87 275.184,1654.06 C275.451,1654.24 275.691,1654.51 275.904,1654.86 L285.824,1670.06 C286.064,1669.31 286.411,1668.56 286.864,1667.82 L295.584,1655.02 C295.851,1654.64 296.118,1654.34 296.384,1654.12 C296.651,1653.89 296.984,1653.78 297.384,1653.78 L303.944,1653.78 L290.304,1673.14 L304.504,1694.3 L297.664,1694.3 C297.078,1694.3 296.618,1694.14 296.284,1693.84 C295.951,1693.53 295.678,1693.19 295.464,1692.82 L285.264,1676.94 C285.078,1677.71 284.798,1678.4 284.424,1679.02 L274.984,1692.82 C274.718,1693.19 274.431,1693.53 274.124,1693.84 C273.818,1694.14 273.398,1694.3 272.864,1694.3 L266.504,1694.3 L280.704,1673.54 Z" style="stroke:none;fill-rule:nonzero;fill:#ffffff;fill-opacity:1;"/>
        </g>
    </g>
</svg>
