<?xml version="1.0"?>
<svg version="1.1" xmlns="http://www.w3.org/2000/svg" xmlns:xlink="http://www.w3.org/1999/xlink" width="2792" height="2792">
    <desc iVinci="yes" version="4.5" gridStep="20" showGrid="no" snapToGrid="no" codePlatform="0"/>
    <g id="Layer1" visibility="hidden" opacity="1">
        <g id="Shape1">
            <desc shapeID="1" type="0" basicInfo-basicType="0" basicInfo-roundedRectRadius="12" basicInfo-polygonSides="6" basicInfo-starPoints="5" bounding="rect(-768,-831.998,1536,1664)" text="" font-familyName="" font-pixelSize="20" font-bold="0" font-underline="0" font-alignment="1" strokeStyle="0" markerStart="0" markerEnd="0" shadowEnabled="0" shadowOffsetX="0" shadowOffsetY="2" shadowBlur="4" shadowOpacity="160" blurEnabled="0" blurRadius="4" transform="matrix(0.321647,0,0,0.300649,490.163,642.228)" pers-center="0,0" pers-size="0,0" pers-start="0,0" pers-end="0,0" locked="0" mesh="" flag=""/>
            <path id="shapePath1" d="M325.48,488.296 C325.48,483.085 323.443,478.575 319.369,474.767 C315.295,470.959 310.47,469.055 304.895,469.055 C299.319,469.055 294.495,470.959 290.421,474.767 C286.346,478.575 284.309,483.085 284.309,488.296 C284.309,493.508 286.346,498.017 290.421,501.825 C294.495,505.634 299.319,507.538 304.895,507.538 C310.47,507.538 315.295,505.634 319.369,501.825 C323.443,498.017 325.48,493.508 325.48,488.296 M696.017,661.47 C696.017,654.455 693.712,646.337 689.102,637.117 C684.492,627.897 678.756,623.187 671.894,622.987 C675.11,619.579 677.791,614.819 679.935,608.706 C682.079,602.593 683.151,597.031 683.151,592.02 C683.151,578.19 677.469,566.264 666.104,556.243 C669.964,549.829 671.894,542.914 671.894,535.498 C671.894,528.082 670.018,520.716 666.265,513.4 C662.512,506.085 657.42,500.823 650.987,497.616 C652.059,491.603 652.595,485.991 652.595,480.78 C652.595,463.743 647.341,451.116 636.834,442.898 C626.327,434.681 611.746,430.572 593.09,430.572 L551.92,430.572 C523.829,430.572 487.161,437.888 441.916,452.519 C440.844,452.92 437.735,453.972 432.589,455.676 C427.442,457.38 423.636,458.632 421.17,459.434 C418.704,460.236 414.952,461.388 409.912,462.891 C404.873,464.395 400.799,465.497 397.69,466.199 C394.581,466.9 391.042,467.552 387.076,468.153 C383.108,468.754 379.731,469.055 376.944,469.055 L366.651,469.055 L366.651,661.47 L376.944,661.47 C380.374,661.47 384.181,662.372 388.362,664.176 C392.543,665.98 396.832,668.685 401.228,672.293 C405.624,675.901 409.752,679.459 413.611,682.966 C417.471,686.474 421.76,690.883 426.477,696.195 C431.195,701.506 434.894,705.765 437.574,708.972 C440.254,712.179 443.632,716.288 447.706,721.299 C451.78,726.31 454.246,729.316 455.104,730.318 C466.898,743.948 475.153,753.067 479.871,757.677 C488.662,766.296 495.042,777.27 499.009,790.598 C502.976,803.927 506.246,816.504 508.819,828.33 C511.392,840.155 515.466,848.674 521.041,853.885 C541.627,853.885 555.35,849.175 562.212,839.755 C569.074,830.334 572.505,815.803 572.505,796.16 C572.505,784.335 567.359,768.25 557.066,747.906 C546.773,727.562 541.627,711.578 541.627,699.953 L654.846,699.953 C665.568,699.953 675.11,696.095 683.473,688.378 C691.836,680.661 696.017,671.692 696.017,661.47 M737.188,661.771 C737.188,682.415 729.04,700.354 712.743,715.587 C696.446,730.819 677.147,738.436 654.846,738.436 L598.237,738.436 C608.529,758.279 613.676,777.52 613.676,796.16 C613.676,819.812 609.923,838.452 602.418,852.081 C594.913,865.911 583.977,876.083 569.61,882.597 C555.243,889.111 539.054,892.368 521.041,892.368 C510.105,892.368 500.456,888.66 492.093,881.244 C484.803,874.63 479.013,866.412 474.724,856.591 C470.436,846.77 467.702,837.7 466.522,829.382 C465.343,821.064 463.467,812.596 460.893,803.977 C458.32,795.359 454.997,788.945 450.922,784.736 C440.63,774.714 429.158,761.987 416.506,746.553 C394.849,720.297 380.16,704.763 372.441,699.953 L284.309,699.953 C272.944,699.953 263.241,696.195 255.2,688.679 C247.159,681.162 243.138,672.093 243.138,661.47 L243.138,469.055 C243.138,458.432 247.159,449.362 255.2,441.846 C263.241,434.33 272.944,430.572 284.309,430.572 L376.944,430.572 C381.661,430.572 396.457,426.563 421.331,418.546 C448.778,409.727 472.687,403.113 493.058,398.703 C513.429,394.293 534.872,392.089 557.388,392.089 L593.412,392.089 C623.432,392.089 647.717,400.006 666.265,415.84 C684.813,431.674 693.98,453.321 693.766,480.78 L693.766,482.283 C706.632,497.717 713.065,515.555 713.065,535.799 C713.065,540.208 712.743,544.518 712.1,548.727 C720.248,562.156 724.322,576.587 724.322,592.02 C724.322,599.236 723.357,606.151 721.427,612.765 C731.935,627.597 737.188,643.932 737.188,661.771 Z" style="stroke:none;fill-rule:evenodd;fill:#ffffff;fill-opacity:1;"/>
        </g>
        <g id="Shape2">
            <desc shapeID="2" type="0" basicInfo-basicType="0" basicInfo-roundedRectRadius="12" basicInfo-polygonSides="6" basicInfo-starPoints="5" bounding="rect(0,0,0,0)" text="" font-familyName="Helvetica" font-pixelSize="20" font-bold="0" font-underline="0" font-alignment="1" strokeStyle="0" markerStart="0" markerEnd="0" shadowEnabled="0" shadowOffsetX="0" shadowOffsetY="2" shadowBlur="4" shadowOpacity="160" blurEnabled="0" blurRadius="4" transform="matrix(0.828914,0,0,0.796916,2432.94,312.991)" pers-center="0,0" pers-size="0,0" pers-start="0,0" pers-end="0,0" locked="0" mesh="" flag=""/>
            <path id="shapePath2" d="M2432.94,312.991 Z" style="stroke:none;fill-rule:evenodd;fill:#ffffff;fill-opacity:1;"/>
        </g>
    </g>
    <g id="Layer2" opacity="1">
        <g id="Shape3">
            <desc shapeID="3" type="0" basicInfo-basicType="0" basicInfo-roundedRectRadius="12" basicInfo-polygonSides="6" basicInfo-starPoints="5" bounding="rect(0,0,0,0)" text="" font-familyName="Helvetica" font-pixelSize="20" font-bold="0" font-underline="0" font-alignment="1" strokeStyle="0" markerStart="0" markerEnd="0" shadowEnabled="0" shadowOffsetX="0" shadowOffsetY="2" shadowBlur="4" shadowOpacity="160" blurEnabled="0" blurRadius="4" transform="matrix(0.828914,0,0,0.796916,2432.94,312.991)" pers-center="0,0" pers-size="0,0" pers-start="0,0" pers-end="0,0" locked="0" mesh="" flag=""/>
            <path id="shapePath3" d="M2432.94,312.991 Z" style="stroke:none;fill-rule:evenodd;fill:#ffffff;fill-opacity:1;"/>
        </g>
        <g id="Shape4">
            <desc shapeID="4" type="0" basicInfo-basicType="0" basicInfo-roundedRectRadius="12" basicInfo-polygonSides="6" basicInfo-starPoints="5" bounding="rect(-62.5708,-67.7887,125.142,135.578)" text="" font-familyName="" font-pixelSize="20" font-bold="0" font-underline="0" font-alignment="1" strokeStyle="0" markerStart="0" markerEnd="0" shadowEnabled="0" shadowOffsetX="0" shadowOffsetY="2" shadowBlur="4" shadowOpacity="160" blurEnabled="0" blurRadius="4" transform="matrix(7.17656,0,0,7.16512,2207.68,1396)" pers-center="0,0" pers-size="0,0" pers-start="0,0" pers-end="0,0" locked="0" mesh="" flag=""/>
            <path id="shapePath4" d="M2628.1,1453.21 C2647.2,1424.41 2656.73,1392.69 2656.73,1358.06 C2656.73,1317.97 2641.93,1283.15 2612.32,1253.54 C2582.69,1223.96 2547.6,1209.18 2507.07,1209.18 L2404.16,1209.18 C2422.85,1170.65 2432.23,1133.29 2432.23,1097.09 C2432.23,1051.56 2425.39,1015.37 2411.76,988.515 C2398.11,961.653 2378.22,941.906 2352.12,929.252 C2325.98,916.605 2296.57,910.286 2263.83,910.286 C2243.94,910.286 2226.4,917.487 2211.2,931.889 C2194.44,948.233 2182.35,969.255 2174.95,994.943 C2167.54,1020.62 2161.59,1045.24 2157.1,1068.79 C2152.63,1092.33 2145.71,1108.97 2136.36,1118.7 C2117.26,1139.33 2096.41,1164.24 2073.79,1193.42 C2034.42,1244.4 2007.72,1274.57 1993.68,1283.91 L1833.48,1283.91 C1812.83,1283.91 1795.18,1291.22 1780.56,1305.8 C1765.95,1320.4 1758.64,1338.01 1758.64,1358.64 L1758.64,1732.24 C1758.64,1752.88 1765.95,1770.49 1780.56,1785.08 C1795.2,1799.67 1812.83,1806.97 1833.48,1806.97 L2001.88,1806.97 C2010.44,1806.97 2037.33,1814.77 2082.55,1830.32 C2130.49,1847.06 2172.7,1859.81 2209.15,1868.57 C2245.59,1877.33 2282.51,1881.72 2319.96,1881.72 L2374.31,1881.72 L2395.38,1881.72 C2450.33,1881.72 2494.56,1866.03 2528.1,1834.71 C2561.62,1803.36 2578.18,1760.66 2577.8,1706.55 C2601.18,1676.58 2612.88,1641.96 2612.88,1602.66 C2612.88,1594.1 2612.3,1585.73 2611.14,1577.54 C2625.93,1551.48 2633.35,1523.46 2633.35,1493.49 C2633.35,1479.48 2631.61,1466.05 2628.1,1453.21 M1897.21,1721.16 C1889.81,1728.54 1881.03,1732.26 1870.91,1732.26 C1860.76,1732.26 1852,1728.54 1844.6,1721.16 C1837.19,1713.78 1833.48,1705.02 1833.48,1694.89 C1833.48,1684.77 1837.19,1676.01 1844.6,1668.63 C1852,1661.23 1860.76,1657.53 1870.91,1657.53 C1881.03,1657.53 1889.81,1661.23 1897.21,1668.63 C1904.63,1676.01 1908.34,1684.77 1908.34,1694.89 C1908.34,1705.02 1904.63,1713.78 1897.21,1721.16 M2569.35,1405.95 C2560.97,1423.85 2550.53,1433 2538.06,1433.38 C2543.9,1440 2548.79,1449.25 2552.68,1461.11 C2556.58,1472.99 2558.51,1483.78 2558.51,1493.51 C2558.51,1520.35 2548.19,1543.52 2527.54,1562.97 C2534.55,1575.42 2538.06,1588.85 2538.06,1603.25 C2538.06,1617.65 2534.66,1631.95 2527.83,1646.15 C2521.01,1660.36 2511.76,1670.56 2500.07,1676.79 C2502.01,1688.47 2502.98,1699.36 2502.98,1709.47 C2502.98,1774.45 2465.55,1806.95 2390.71,1806.95 L2319.98,1806.95 C2268.9,1806.95 2202.24,1792.76 2120,1764.36 C2118.04,1763.56 2112.39,1761.53 2103.04,1758.23 C2093.68,1754.91 2086.75,1752.48 2082.26,1750.93 C2077.79,1749.35 2070.98,1747.13 2061.81,1744.21 C2052.65,1741.29 2045.25,1739.15 2039.58,1737.78 C2033.95,1736.43 2027.51,1735.16 2020.29,1733.99 C2013.1,1732.83 2006.95,1732.24 2001.88,1732.24 L1983.18,1732.24 L1983.18,1358.65 L2001.88,1358.65 C2008.12,1358.65 2015.04,1356.9 2022.64,1353.4 C2030.24,1349.89 2038.04,1344.64 2046.04,1337.64 C2054.02,1330.63 2061.52,1323.72 2068.54,1316.91 C2075.56,1310.1 2083.35,1301.54 2091.94,1291.23 C2100.52,1280.91 2107.24,1272.64 2112.09,1266.41 C2116.97,1260.19 2123.11,1252.21 2130.53,1242.48 C2137.93,1232.75 2142.4,1226.91 2143.96,1224.96 C2165.39,1198.5 2180.41,1180.8 2188.99,1171.84 C2204.97,1155.11 2216.56,1133.8 2223.78,1107.92 C2231,1082.03 2236.94,1057.62 2241.59,1034.66 C2246.28,1011.69 2253.68,995.149 2263.83,985.032 C2301.24,985.032 2326.2,994.176 2338.67,1012.47 C2351.14,1030.76 2357.37,1058.98 2357.37,1097.12 C2357.37,1120.07 2348.01,1151.31 2329.3,1190.81 C2310.6,1230.31 2301.24,1261.35 2301.24,1283.92 L2507.07,1283.92 C2526.57,1283.92 2543.9,1291.41 2559.09,1306.39 C2574.29,1321.38 2581.91,1338.79 2581.91,1358.64 C2581.91,1372.26 2577.73,1388.03 2569.35,1405.95 Z" style="stroke:none;fill-rule:evenodd;fill:#afafaf;fill-opacity:1;"/>
        </g>
        <g id="Shape5">
            <desc shapeID="5" type="0" basicInfo-basicType="0" basicInfo-roundedRectRadius="12" basicInfo-polygonSides="6" basicInfo-starPoints="5" bounding="rect(-62.5708,-67.7887,125.142,135.578)" text="" font-familyName="" font-pixelSize="20" font-bold="0" font-underline="0" font-alignment="1" strokeStyle="0" markerStart="0" markerEnd="0" shadowEnabled="0" shadowOffsetX="0" shadowOffsetY="2" shadowBlur="4" shadowOpacity="160" blurEnabled="0" blurRadius="4" transform="matrix(7.17656,0,0,7.16512,2188.82,1381.7)" pers-center="0,0" pers-size="0,0" pers-start="0,0" pers-end="0,0" locked="0" mesh="" flag=""/>
            <path id="shapePath5" d="M2609.23,1438.91 C2628.34,1410.1 2637.86,1378.39 2637.86,1343.75 C2637.86,1303.66 2623.06,1268.84 2593.45,1239.23 C2563.82,1209.66 2528.74,1194.87 2488.2,1194.87 L2385.29,1194.87 C2403.98,1156.35 2413.36,1118.98 2413.36,1082.79 C2413.36,1037.26 2406.53,1001.06 2392.89,974.211 C2379.24,947.349 2359.35,927.601 2333.25,914.947 C2307.11,902.301 2277.7,895.981 2244.96,895.981 C2225.07,895.981 2207.53,903.183 2192.33,917.584 C2175.57,933.928 2163.49,954.951 2156.09,980.638 C2148.67,1006.32 2142.73,1030.94 2138.24,1054.48 C2133.76,1078.02 2126.84,1094.66 2117.49,1104.39 C2098.39,1125.02 2077.54,1149.93 2054.93,1179.12 C2015.55,1230.1 1988.85,1260.26 1974.82,1269.61 L1814.61,1269.61 C1793.96,1269.61 1776.31,1276.92 1761.7,1291.5 C1747.08,1306.09 1739.77,1323.7 1739.77,1344.33 L1739.77,1717.94 C1739.77,1738.58 1747.08,1756.18 1761.7,1770.77 C1776.33,1785.36 1793.96,1792.67 1814.61,1792.67 L1983.01,1792.67 C1991.58,1792.67 2018.46,1800.46 2063.69,1816.02 C2111.62,1832.75 2153.83,1845.5 2190.28,1854.27 C2226.73,1863.03 2263.65,1867.41 2301.09,1867.41 L2355.45,1867.41 L2376.51,1867.41 C2431.47,1867.41 2475.69,1851.72 2509.23,1820.4 C2542.75,1789.06 2559.31,1746.36 2558.93,1692.25 C2582.31,1662.27 2594.02,1627.65 2594.02,1588.35 C2594.02,1579.79 2593.43,1571.42 2592.27,1563.24 C2607.07,1537.18 2614.48,1509.15 2614.48,1479.19 C2614.48,1465.17 2612.74,1451.74 2609.23,1438.91 M1878.34,1706.86 C1870.95,1714.24 1862.17,1717.95 1852.04,1717.95 C1841.9,1717.95 1833.14,1714.24 1825.74,1706.86 C1818.32,1699.48 1814.61,1690.71 1814.61,1680.58 C1814.61,1670.47 1818.32,1661.7 1825.74,1654.32 C1833.14,1646.93 1841.9,1643.23 1852.04,1643.23 C1862.17,1643.23 1870.95,1646.93 1878.34,1654.32 C1885.76,1661.7 1889.47,1670.47 1889.47,1680.58 C1889.47,1690.71 1885.76,1699.48 1878.34,1706.86 M2550.48,1391.64 C2542.1,1409.55 2531.66,1418.69 2519.19,1419.08 C2525.03,1425.7 2529.92,1434.95 2533.81,1446.8 C2537.72,1458.68 2539.65,1469.47 2539.65,1479.21 C2539.65,1506.05 2529.32,1529.21 2508.67,1548.66 C2515.69,1561.12 2519.19,1574.54 2519.19,1588.94 C2519.19,1603.34 2515.8,1617.64 2508.96,1631.84 C2502.14,1646.05 2492.89,1656.26 2481.2,1662.48 C2483.15,1674.17 2484.11,1685.06 2484.11,1695.17 C2484.11,1760.15 2446.68,1792.65 2371.84,1792.65 L2301.11,1792.65 C2250.03,1792.65 2183.37,1778.46 2101.13,1750.05 C2099.17,1749.26 2093.52,1747.23 2084.17,1743.93 C2074.81,1740.61 2067.89,1738.18 2063.4,1736.62 C2058.93,1735.05 2052.11,1732.83 2042.95,1729.91 C2033.78,1726.99 2026.39,1724.84 2020.72,1723.48 C2015.08,1722.13 2008.64,1720.86 2001.43,1719.68 C1994.23,1718.52 1988.09,1717.94 1983.01,1717.94 L1964.31,1717.94 L1964.31,1344.35 L1983.01,1344.35 C1989.25,1344.35 1996.17,1342.59 2003.77,1339.09 C2011.37,1335.59 2019.17,1330.34 2027.17,1323.33 C2035.15,1316.32 2042.66,1309.42 2049.67,1302.6 C2056.69,1295.8 2064.49,1287.23 2073.07,1276.92 C2081.65,1266.6 2088.37,1258.34 2093.23,1252.11 C2098.1,1245.88 2104.24,1237.9 2111.66,1228.17 C2119.06,1218.45 2123.53,1212.61 2125.09,1210.66 C2146.53,1184.2 2161.54,1166.5 2170.12,1157.54 C2186.1,1140.81 2197.7,1119.5 2204.91,1093.62 C2212.13,1067.73 2218.07,1043.31 2222.73,1020.35 C2227.42,997.39 2234.82,980.845 2244.96,970.728 C2282.37,970.728 2307.33,979.872 2319.8,998.164 C2332.27,1016.46 2338.5,1044.67 2338.5,1082.81 C2338.5,1105.77 2329.14,1137 2310.44,1176.5 C2291.73,1216.01 2282.37,1247.04 2282.37,1269.62 L2488.2,1269.62 C2507.71,1269.62 2525.03,1277.1 2540.23,1292.09 C2555.42,1307.07 2563.04,1324.48 2563.04,1344.34 C2563.04,1357.96 2558.86,1373.72 2550.48,1391.64 Z" style="stroke:none;fill-rule:evenodd;fill:#ffffff;fill-opacity:1;"/>
        </g>
    </g>
</svg>
